<svg width="11" height="18" viewBox="0 0 11 18" fill="none" xmlns="http://www.w3.org/2000/svg"><mask id="path-1-inside-1_1_400" fill="#fff"><path d="M1.15 8.298L8.82.288a.916.916 0 011.333 0l.564.59a1.017 1.017 0 010 1.392l-6.44 6.726 6.448 6.734a1 1 0 01.275.696c0 .264-.098.511-.275.697l-.565.59a.916.916 0 01-1.333 0L1.15 9.694a1.001 1.001 0 01-.275-.698c0-.265.097-.514.275-.7z"/></mask><path d="M1.15 8.298L8.82.288a.916.916 0 011.333 0l.564.59a1.017 1.017 0 010 1.392l-6.44 6.726 6.448 6.734a1 1 0 01.275.696c0 .264-.098.511-.275.697l-.565.59a.916.916 0 01-1.333 0L1.15 9.694a1.001 1.001 0 01-.275-.698c0-.265.097-.514.275-.7z" fill="#888C8F"/><path d="M1.15 8.298l-2.168-2.074.001-.001L1.15 8.298zM8.82.288l2.167 2.073v.001L8.818.288zm1.333 0L7.986 2.363l-.001-.002L10.153.288zm.564.59l2.167-2.076.002.002L10.718.877zm0 1.392L8.551.195l2.166 2.075zm-6.44 6.726L2.11 11.071.124 8.996 2.11 6.922l2.167 2.074zm6.448 6.734l2.167-2.075v.001l-2.167 2.074zm0 1.393l2.168 2.073-.002.002-2.166-2.075zm-.565.59l-2.167-2.075 2.167 2.074zm-1.333 0l2.166-2.075h.001l-2.167 2.074zM1.15 9.694l-2.167 2.075-.002-.002L1.15 9.695zm-.275-.698l3-.007v.013l-3-.006zm-1.892-2.774l7.67-8.01 4.333 4.15-7.67 8.01-4.333-4.15zm7.669-8.01A3.916 3.916 0 019.486-3v6c.581 0 1.123-.243 1.501-.639L6.652-1.786zM9.486-3c1.086 0 2.102.448 2.834 1.214L7.985 2.36c.378.396.92.639 1.501.639v-6zm2.833 1.213l.565.59-4.333 4.15-.565-.59 4.333-4.15zm.567.59a4.017 4.017 0 01-.002 5.542L8.551.195a1.983 1.983 0 00-.002 2.756l4.337-4.147zm-.002 5.542l-6.44 6.726-4.334-4.15L8.55.196l4.334 4.15zm-6.44 2.577l6.448 6.733-4.334 4.15L2.11 11.07l4.334-4.15zm6.448 6.734A4 4 0 0114 16.426H8a2 2 0 00.557 1.378l4.335-4.148zM14 16.426a4.003 4.003 0 01-1.107 2.77L8.556 15.05A2 2 0 008 16.426h6zm-1.109 2.772l-.565.59-4.333-4.15.565-.59 4.333 4.15zm-.564.59A3.916 3.916 0 019.493 21v-6c-.582 0-1.123.244-1.5.638l4.334 4.15zM9.493 21a3.916 3.916 0 01-2.834-1.214l4.335-4.147a2.084 2.084 0 00-1.5-.639v6zM6.66 19.787l-7.677-8.017 4.334-4.15 7.676 8.018-4.333 4.15zm-7.679-8.019A4.001 4.001 0 01-2.125 8.99l6 .013a1.999 1.999 0 00-.557-1.381l-4.337 4.146zm-1.106-2.765a4.001 4.001 0 011.107-2.78l4.336 4.148c.375-.392.558-.896.557-1.38l-6 .012z" fill="#fff" mask="url(#path-1-inside-1_1_400)"/></svg>