<svg width="11" height="18" viewBox="0 0 11 18" fill="none" xmlns="http://www.w3.org/2000/svg"><mask id="path-1-inside-1_1_396" fill="#fff"><path d="M9.85 8.298L2.18.288a.916.916 0 00-1.333 0l-.565.59a1.017 1.017 0 000 1.392l6.44 6.726L.276 15.73a1 1 0 00-.275.696c0 .264.098.511.275.697l.565.59a.916.916 0 001.333 0L9.85 9.694a.998.998 0 00.275-.698c0-.265-.097-.514-.275-.7z"/></mask><path d="M9.85 8.298L2.18.288a.916.916 0 00-1.333 0l-.565.59a1.017 1.017 0 000 1.392l6.44 6.726L.276 15.73a1 1 0 00-.275.696c0 .264.098.511.275.697l.565.59a.916.916 0 001.333 0L9.85 9.694a.998.998 0 00.275-.698c0-.265-.097-.514-.275-.7z" fill="#fff"/><path d="M9.85 8.298l2.168-2.074-.001-.001L9.85 8.298zM2.18.288L.014 2.36v.001L2.182.288zm-1.333 0l2.167 2.075.001-.002L.847.288zm-.565.59l-2.166-2.076-.002.002L.282.877zm0 1.392L2.45.195.282 2.27zm6.44 6.726l2.168 2.075 1.986-2.075L8.89 6.922 6.723 8.996zM.276 15.73l-2.167-2.075v.001L.275 15.73zm0 1.393l-2.168 2.073.002.002 2.166-2.075zm.565.59l2.167-2.075L.84 17.711zm1.333 0L.007 15.637H.006l2.167 2.074zM9.85 9.694l2.167 2.075.002-.002L9.85 9.695zm.275-.698l-3-.007v.013l3-.006zm1.892-2.774l-7.67-8.01-4.333 4.15 7.67 8.01 4.333-4.15zm-7.669-8.01A3.916 3.916 0 001.514-3v6a2.084 2.084 0 01-1.501-.639l4.335-4.147zM1.514-3A3.916 3.916 0 00-1.32-1.786L3.015 2.36c-.378.396-.92.639-1.501.639v-6zM-1.32-1.787l-.565.59 4.333 4.15.565-.59-4.333-4.15zm-.567.59a4.017 4.017 0 00.002 5.542L2.449.195c.745.777.742 1.981.002 2.756l-4.337-4.147zm.002 5.542l6.44 6.726 4.334-4.15L2.45.196l-4.334 4.15zm6.44 2.577l-6.448 6.733 4.334 4.15L8.89 11.07 4.556 6.92zm-6.448 6.734A4 4 0 00-3 16.426h6a2 2 0 01-.557 1.378l-4.335-4.148zM-3 16.426c0 1.016.382 2.011 1.107 2.77l4.337-4.146A2 2 0 013 16.426h-6zm1.109 2.772l.565.59 4.333-4.15-.565-.59-4.333 4.15zm.564.59A3.916 3.916 0 001.507 21v-6c.582 0 1.123.244 1.5.638l-4.334 4.15zM1.507 21a3.916 3.916 0 002.834-1.214L.006 15.64a2.08 2.08 0 011.5-.639v6zm2.833-1.213l7.677-8.017-4.334-4.15-7.676 8.018 4.333 4.15zm7.679-8.019a4.002 4.002 0 001.106-2.778l-6 .013c-.001-.487.183-.99.557-1.381l4.337 4.146zm1.106-2.765a4.001 4.001 0 00-1.107-2.78l-4.336 4.148a1.999 1.999 0 01-.557-1.38l6 .012z" fill="#fff" mask="url(#path-1-inside-1_1_396)"/></svg>