<svg width="35" height="35" viewBox="0 0 35 35" fill="none" xmlns="http://www.w3.org/2000/svg"><path d="M30.232 32.784a1.44 1.44 0 01-1.439 1.438H6.206a1.44 1.44 0 01-1.438-1.438 1.44 1.44 0 011.438-1.44h22.587a1.45 1.45 0 011.439 1.44zm-10.546-5.227c0 .264.217.482.482.482h7.817v2.372H7.015v-7.56h20.97v4.231h-7.817a.478.478 0 00-.482.475zm10.546-7.094a1.44 1.44 0 01-1.439 1.44H6.206a1.44 1.44 0 01-1.438-1.44 1.44 1.44 0 011.438-1.439h22.587a1.45 1.45 0 011.439 1.44zm-2.247-9.947v7.56H7.015v-4.62h7.483a.485.485 0 00.482-.483.485.485 0 00-.482-.482H7.016V10.5l20.968.016zm2.247-2.38a1.44 1.44 0 01-1.439 1.439H6.206a1.44 1.44 0 01-1.438-1.44 1.44 1.44 0 011.438-1.438h22.587a1.44 1.44 0 011.439 1.439zM12.537 3.555h9.925v2.2h-9.925v-2.2zm8.401-1.867v.91H14.07v-.91c0-.498.412-.91.91-.91h5.048c.498 0 .91.412.91.91z" fill="#C1C1C1"/></svg>