<svg width="35" height="35" viewBox="0 0 35 35" fill="none" xmlns="http://www.w3.org/2000/svg"><g clip-path="url(#clip0_119_1424)" fill="#C1C1C1"><path d="M20.864 11.765l-.24 2.127c-.014.13.033.26.126.353a.416.416 0 00.357.125l2.131-.243c.043-.005.08-.025.12-.033l-2.462-2.462a1.18 1.18 0 00-.032.133zm.787-1.14l6.81-6.81 2.733 2.734-6.809 6.81-2.734-2.734zm7.691-7.701l.926-.926L33 4.73l-.926.927-2.732-2.733zm5.461.005a.64.64 0 00.196-.46.656.656 0 00-.196-.468L33 .196a.641.641 0 00-.924-.002l-.92.918 2.733 2.732.915-.915zM3.75 26.25H5c.345 0 .625-.28.625-.625v-25A.625.625 0 005 0H3.75A3.754 3.754 0 000 3.75v24.196a4.99 4.99 0 013.75-1.696z"/><path d="M3.931 35h30.443c.346 0 .625-.28.625-.626v-25a.625.625 0 00-.625-.624H30.75l-5.933 5.937c-.39.382-.896.623-1.438.685-2.109.236-2.128.253-2.31.253h-9.193V22.5h15v-3.125a.625.625 0 111.25 0v9.375c0 .69-.56 1.25-1.25 1.25h-12.5a.625.625 0 010-1.25h4.375v-5h-6.875v8.75a.625.625 0 01-1.25 0V15.624H8.75a.625.625 0 010-1.25h10.693c-.058-.2-.078-.41-.058-.618l.237-2.129a2.414 2.414 0 01.708-1.459l1.42-1.42H6.875v16.876c0 1.035-.84 1.875-1.875 1.875H3.75A3.754 3.754 0 000 31.25v.137a3.875 3.875 0 003.931 3.612z"/><path d="M20 23.75h6.875v5H20v-5z"/></g><defs><clipPath id="clip0_119_1424"><path fill="#fff" d="M0 0h35v35H0z"/></clipPath></defs></svg>