<svg width="35" height="35" viewBox="0 0 35 35" fill="none" xmlns="http://www.w3.org/2000/svg"><path d="M29.731 13.086l-.053-.071-.01-.021-4.793-7.115-4.793 7.115-.01.02-.053.072a5.982 5.982 0 00-1.175 3.579 6.038 6.038 0 006.031 6.031 6.038 6.038 0 006.032-6.031c0-1.3-.407-2.537-1.176-3.579z" fill="#C1C1C1"/><path d="M24.876 24.751c-4.46 0-8.087-3.627-8.087-8.086 0-1.733.54-3.385 1.562-4.778l3.15-4.677L16.646 0 6.525 15.022a12.455 12.455 0 00-2.432 7.426C4.093 29.37 9.723 35 16.645 35c6.557 0 11.956-5.055 12.504-11.473a8.036 8.036 0 01-4.273 1.224z" fill="#C1C1C1"/></svg>