<svg width="44" height="44" viewBox="0 0 44 44" fill="none" xmlns="http://www.w3.org/2000/svg"><g clip-path="url(#clip0_371_122)"><path fill-rule="evenodd" clip-rule="evenodd" d="M0 22.123C0 33.06 7.944 42.156 18.333 44V28.11h-5.5V22h5.5v-4.89c0-5.5 3.544-8.554 8.557-8.554 1.587 0 3.3.244 4.887.488v5.623h-2.81c-2.69 0-3.3 1.344-3.3 3.056V22h5.866l-.977 6.11h-4.89V44C36.057 42.156 44 33.062 44 22.123 44 9.955 34.1 0 22 0S0 9.955 0 22.123z" fill="#fff"/></g><defs><clipPath id="clip0_371_122"><path fill="#fff" d="M0 0h44v44H0z"/></clipPath></defs></svg>