<svg width="35" height="35" viewBox="0 0 35 35" fill="none" xmlns="http://www.w3.org/2000/svg"><path d="M1.75 33.833h28.758a.583.583 0 00.328-1.065l-8.752-5.935c-.011-.007-.024-.012-.035-.02L8.87 17.878l-.02-.017-6.774-4.593a.56.56 0 00-.6-.033.57.57 0 00-.31.515v19.5a.583.583 0 00.583.583zm31.38-14.619l-.54.786a.581.581 0 01-.811.148L27.25 17.01l-.669.956 4.526 3.139a.586.586 0 01.145.811l-.547.788.07.047 3.06-.46h.007l-.641-3.025-.072-.053z" fill="#C1C1C1"/><path d="M27.755 15.941l.136.094 1.516-2.24-6.07 1.166 1.166 6.075 1.425-2.103-.175-.12a.981.981 0 01-.249-1.349l.898-1.279a.962.962 0 011.348-.242l.005-.002z" fill="#C1C1C1"/><path d="M33.59 12.296a1.41 1.41 0 00-.376-1.955L20.042 1.41a1.407 1.407 0 00-1.955.376l-3.314 4.887 1.193.827 2.713-4a1.045 1.045 0 011.442-.28L31.5 10.932a1.05 1.05 0 01.277 1.448l-2.928 4.316 1.195.828 3.546-5.229zM11.28 5.462a.583.583 0 01.096-.437l.547-.788-.07-.046-3.06.46h-.007l.642 3.025.072.048.54-.782a.584.584 0 01.811-.148l4.527 3.137.67-.952-4.526-3.14a.584.584 0 01-.242-.377z" fill="#C1C1C1"/><path d="M30.336 12.428l.406-.6-.6-.406-7.216 1.384.193 1.007 7.217-1.385zM20.04 15.593l-6.076 1.165 7.241 4.91-1.165-6.075zm-.464-11.336l-.407.6 3.403 17.737.6.407.406-.6-3.403-17.737-.6-.407zm-3.353 6.499a.952.952 0 01-.794.418.954.954 0 01-.461-.13l-1.633 2.415 6.076-1.166-1.167-6.071-1.32 1.948a.967.967 0 01.2 1.305l-.9 1.281zm6.483.904l6.07-1.165-7.235-4.905 1.165 6.07z" fill="#C1C1C1"/><path d="M24.067 23.76a1.056 1.056 0 01-.867.456 1.03 1.03 0 01-.584-.18L11.24 16.321a1.022 1.022 0 01-.438-.667 1.04 1.04 0 01.158-.776L14 10.392l-1.193-.825-3.656 5.39a1.4 1.4 0 00.358 1.94l13.22 8.965a1.4 1.4 0 001.93-.388l3.42-5.052-1.188-.826-2.824 4.163z" fill="#C1C1C1"/><path d="M12.405 14.825l-.407.6.6.407 7.222-1.385-.193-1.006-7.222 1.384z" fill="#C1C1C1"/></svg>