<svg width="35" height="35" viewBox="0 0 35 35" fill="none" xmlns="http://www.w3.org/2000/svg"><g clip-path="url(#clip0_119_1435)" fill="#C1C1C1"><path d="M34.793 13.542l-2.464-2.432a.697.697 0 00-.492-.202h-1.844c-.176-.972-.746-2.817-2.588-4.66C25.474 4.32 21.46.303 17.28 1.679a.7.7 0 000 1.33c2.62.862 3.897 3.117 4.321 4.032l-2.13 2.1a.701.701 0 00.002.998l4.48 4.402a.7.7 0 00.49.2h1.766v1.732c0 .188.074.367.208.499l2.463 2.433a.702.702 0 00.983 0l4.93-4.865a.7.7 0 000-.997zM.843 28.801A2.749 2.749 0 000 30.746c-.012.753.27 1.469.797 2.014a2.754 2.754 0 002 .844 2.82 2.82 0 001.97-.811L22.4 14.978l-3.362-3.303L.843 28.801z"/></g><defs><clipPath id="clip0_119_1435"><path fill="#fff" d="M0 0h35v35H0z"/></clipPath></defs></svg>