<svg width="44" height="44" viewBox="0 0 44 44" fill="none" xmlns="http://www.w3.org/2000/svg"><path d="M22 0C9.85 0 0 9.85 0 22s9.85 22 22 22 22-9.85 22-22S34.15 0 22 0zm-5.385 31.119H12.16V16.782h4.455v14.337zM14.36 15.021c-1.407 0-2.317-.997-2.317-2.23 0-1.258.937-2.225 2.374-2.225s2.317.967 2.344 2.225c0 1.233-.907 2.23-2.401 2.23zm18.525 16.096H28.43v-7.945c0-1.849-.646-3.105-2.257-3.105-1.23 0-1.961.85-2.285 1.668-.119.291-.149.704-.149 1.114v8.266h-4.457v-9.762c0-1.79-.057-3.287-.117-4.574h3.87l.205 1.991h.09c.586-.935 2.023-2.315 4.427-2.315 2.93 0 5.128 1.964 5.128 6.186v8.477z" fill="#fff"/></svg>