<svg width="35" height="35" viewBox="0 0 35 35" fill="none" xmlns="http://www.w3.org/2000/svg"><path fill-rule="evenodd" clip-rule="evenodd" d="M19.688 31.195v1.617H8.75V2.189h10.938v1.617H17.5v1.14h2.188v1.048h-4.375v1.14h4.374V8.18H17.5v1.14h2.188v1.048h-4.375v1.14h4.374v1.047H17.5v1.14h2.188v1.048h-4.375v1.14h4.374v1.047H17.5v1.14h2.188v1.048h-4.375v1.14h4.374v1.047H17.5v1.14h2.188v1.048h-4.375v1.14h4.374v1.047H17.5v1.14h2.188v1.048h-4.375v1.14h4.374v1.047H17.5v1.14h2.188zM23.09 4.368l-1.215 1.216-.806-.806 2.59-2.59 2.59 2.59-.805.806-1.215-1.216v26.264l1.215-1.216.806.806-2.59 2.59-2.59-2.59.805-.806 1.215 1.216V4.368z" fill="#C1C1C1"/></svg>