<svg width="187" height="27" viewBox="0 0 187 27" fill="none" xmlns="http://www.w3.org/2000/svg"><path fill-rule="evenodd" clip-rule="evenodd" d="M159.894 18.43c0-1.776-2.175-2.11-4.865-2.22-5.722-.389-9.557-2.332-9.614-7.883-.229-11.103 20.373-11.103 20.201 0h-6.409c0-3.386-7.096-3.109-7.325-.055-.172 1.942 1.831 2.331 4.177 2.608 5.265.556 10.416 1.222 10.416 7.606 0 10.77-21.575 11.102-21.403-.222h6.524c0 3.275 8.298 3.164 8.298.166zm-87.272 4.441H62.207l-1.546 3.22h-6.638v-.944L65.926.111h2.919l11.96 25.036v.944h-6.638l-1.545-3.22zm-5.265-12.38l-2.976 6.774h5.952l-2.976-6.773zm-16.596 2.277c2.175 1.055 3.205 2.997 3.205 5.273-.057 4.497-2.861 8.105-8.24 8.105h-12.42V.444h11.332c4.578 0 8.24 3.442 8.24 7.883 0 1.499-.8 3.386-2.117 4.44zm-10.93-6.495v4.164h4.292c2.69 0 2.69-4.164-.057-4.164H39.83zm0 9.66v4.385h5.436c2.747 0 2.69-4.386-.057-4.386h-5.38zM96.028.443V17.43c0 2.11-2.003 3.109-4.006 3.164-2.003 0-4.063-.999-4.063-3.109V.444h-6.467v17.154c0 5.662 5.093 8.937 10.53 8.937 5.437 0 10.53-3.275 10.53-8.938V.445h-6.524zm17.168 17.376v8.27h-6.867V.445h16.481v5.884h-9.614v5.607h8.527v5.885h-8.527zm19.686-11.547h9.786V.333h-16.539v25.702h16.883v-5.829h-10.13V15.71h8.985V9.881h-8.985V6.273zM166.933.389v5.884h6.524v19.818h6.695V6.273h6.467V.389h-19.686z" fill="#fff"/><path d="M0 0v26.66h20.648l6.883-6.665V0H0zm18.303 17.724H9.228V8.936h9.075v8.788z" fill="#E11E1E"/></svg>