<svg width="140" height="20" viewBox="0 0 140 20" fill="none" xmlns="http://www.w3.org/2000/svg"><path fill-rule="evenodd" clip-rule="evenodd" d="M119.95 13.826c0-1.333-1.631-1.583-3.649-1.666-4.293-.291-7.169-1.749-7.212-5.913-.172-8.33 15.283-8.33 15.155 0h-4.809c0-2.54-5.323-2.332-5.495-.042-.129 1.458 1.374 1.75 3.134 1.957 3.95.417 7.814.917 7.814 5.706 0 8.079-16.186 8.329-16.057-.167h4.894c0 2.457 6.225 2.374 6.225.125zm-65.47 3.332h-7.813l-1.16 2.415h-4.98v-.708L49.458.083h2.19l8.972 18.782v.708h-4.98l-1.159-2.415zM50.53 7.87l-2.232 5.08h4.465l-2.232-5.08zM38.08 9.578c1.632.792 2.404 2.25 2.404 3.957-.042 3.373-2.146 6.08-6.181 6.08h-9.317V.333h8.5c3.435 0 6.183 2.582 6.183 5.914 0 1.124-.601 2.54-1.589 3.331zm-8.2-4.872v3.123h3.22c2.018 0 2.018-3.123-.043-3.123H29.88zm0 7.246v3.29h4.08c2.06 0 2.017-3.29-.044-3.29h-4.035zM72.04.333v12.744c0 1.582-1.503 2.332-3.006 2.373-1.503 0-3.048-.75-3.048-2.332V.333h-4.852v12.868c0 4.248 3.822 6.705 7.9 6.705s7.9-2.457 7.9-6.705V.333h-4.895zm12.878 13.035v6.205h-5.151V.333H92.13v4.415h-7.213v4.206h6.397v4.414h-6.397zm14.769-8.662h7.341V.25H94.621v19.282h12.665v-4.373h-7.6v-3.373h6.741V7.413h-6.74V4.706zM125.23.292v4.414h4.894v14.867h5.023V4.706h4.851V.292H125.23z" fill="#050505"/><path d="M0 0v20h15.49l5.164-5V0H0zm13.73 13.296H6.924V6.704h6.808v6.592z" fill="#E11E1E"/></svg>