<svg width="85" height="85" viewBox="0 0 85 85" fill="none" xmlns="http://www.w3.org/2000/svg"><path d="M0 0h85v65L75 75l-9.5 10H0V0z" fill="#E11E1E"/><path d="M24.36 14.2c1.52 0 2.84.256 3.96.768 1.12.496 1.984 1.216 2.592 2.16.608.928.912 2.024.912 3.288 0 1.264-.304 2.36-.912 3.288-.608.928-1.472 1.648-2.592 2.16-1.12.496-2.44.744-3.96.744h-2.928V31H16.68V14.2h7.68zm-.288 8.664c.976 0 1.712-.208 2.208-.624.496-.432.744-1.04.744-1.824s-.248-1.392-.744-1.824c-.496-.432-1.232-.648-2.208-.648h-2.64v4.92h2.64zM34.141 14.2h7.944c1.84 0 3.472.344 4.896 1.032 1.424.688 2.528 1.664 3.312 2.928.784 1.264 1.176 2.744 1.176 4.44 0 1.696-.392 3.176-1.176 4.44-.784 1.264-1.888 2.24-3.312 2.928-1.424.688-3.056 1.032-4.896 1.032H34.14V14.2zm7.752 13.008c1.44 0 2.592-.408 3.456-1.224.88-.816 1.32-1.944 1.32-3.384s-.44-2.568-1.32-3.384c-.864-.816-2.016-1.224-3.456-1.224h-3v9.216h3zm16.828-9.336v3.696h7.416v3.672h-7.416V31H53.97V14.2h13.176v3.672h-8.424z" fill="#fff"/></svg>