<svg width="34" height="34" viewBox="0 0 34 34" fill="none" xmlns="http://www.w3.org/2000/svg"><path d="M34 34V0H8L4 4 0 7.8V34h34z" fill="#E11E1E"/><path d="M14.32 24.256c0-.608-.102-1.136-.307-1.584a2.308 2.308 0 00-.864-1.037c-.371-.243-.81-.365-1.315-.365-.506 0-.944.122-1.316.365a2.4 2.4 0 00-.864 1.037c-.198.448-.297.976-.297 1.584v1.171H7.6v1.901h6.72v-3.072zm-3.466.115c0-.39.084-.685.25-.883.173-.198.416-.298.73-.298.313 0 .556.1.73.298.172.198.258.493.258.883v1.056h-1.968v-1.056zm3.466-4.027v-3.178c0-.736-.138-1.389-.413-1.958a3.11 3.11 0 00-1.171-1.325c-.506-.314-1.098-.47-1.776-.47-.678 0-1.27.156-1.776.47a3.11 3.11 0 00-1.171 1.325c-.275.57-.413 1.222-.413 1.958v3.178h6.72zm-5.203-3.101c0-.576.163-1.037.49-1.383.326-.352.777-.528 1.353-.528s1.027.176 1.354.528c.326.346.49.807.49 1.383v1.2H9.116v-1.2zm3.734-6.731h-1.478V7.545H9.904v2.967H7.6v1.9h6.72v-5.27h-1.469v3.37z" fill="#fff"/></svg>