<svg width="36" height="36" viewBox="0 0 36 36" fill="none" xmlns="http://www.w3.org/2000/svg"><path d="M36 0v36H8.47l-4.235-4.235L0 27.74V0h36z" fill="#E11E1E"/><path d="M15.162 10.317c0 .644-.108 1.203-.325 1.677-.21.475-.515.84-.915 1.098-.393.258-.857.386-1.392.386-.536 0-1-.128-1.393-.386-.393-.257-.698-.623-.915-1.098-.21-.474-.315-1.033-.315-1.677v-1.24h-1.86V7.064h7.115v3.253zm-3.67-.122c0 .414.089.725.265.935.183.21.44.315.773.315.332 0 .59-.105.772-.315.183-.21.275-.521.275-.935V9.077h-2.084v1.118zm3.67 4.265v3.364c0 .78-.145 1.47-.437 2.074a3.292 3.292 0 01-1.24 1.402c-.535.333-1.162.499-1.88.499-.719 0-1.345-.166-1.88-.498a3.292 3.292 0 01-1.24-1.403c-.292-.603-.438-1.294-.438-2.074V14.46h7.115zm-5.509 3.283c0 .61.173 1.098.518 1.464.346.372.824.559 1.434.559s1.087-.187 1.433-.56c.345-.365.518-.853.518-1.463v-1.27H9.653v1.27zm3.954 7.127h-1.565v3.141h-1.555v-3.14h-2.44v-2.013h7.115v5.58h-1.555V24.87z" fill="#fff"/></svg>