<svg width="34" height="34" viewBox="0 0 34 34" fill="none" xmlns="http://www.w3.org/2000/svg"><path d="M0 0v34h26l4-4 4-3.8V0H0z" fill="#E11E1E"/><path d="M19.68 9.744c0 .608.102 1.136.307 1.584.199.448.487.794.864 1.037.371.243.81.365 1.315.365.506 0 .944-.122 1.316-.365a2.4 2.4 0 00.864-1.037c.198-.448.297-.976.297-1.584V8.573H26.4V6.672h-6.72v3.072zm3.466-.115c0 .39-.084.685-.25.883-.173.198-.416.298-.73.298-.313 0-.556-.1-.73-.298-.172-.198-.258-.493-.258-.883V8.573h1.968v1.056zm-3.466 4.027v3.178c0 .736.138 1.389.413 1.958a3.11 3.11 0 001.171 1.325c.506.314 1.098.47 1.776.47.678 0 1.27-.156 1.776-.47a3.11 3.11 0 001.171-1.325c.275-.57.413-1.222.413-1.958v-3.178h-6.72zm5.203 3.101c0 .576-.163 1.037-.49 1.383-.326.352-.777.528-1.353.528s-1.027-.176-1.354-.528c-.326-.346-.49-.807-.49-1.383v-1.2h3.687v1.2zm-3.734 6.731h1.478v2.967h1.469v-2.967H26.4v-1.9h-6.72v5.27h1.469v-3.37z" fill="#fff"/></svg>