<svg width="24" height="24" viewBox="0 0 24 24" fill="none" xmlns="http://www.w3.org/2000/svg"><path d="M21.75 4.498v.128c-.848 14.737-13.283 16.83-17.078 17.122a2.25 2.25 0 01-2.422-2.07v-4.132a1.5 1.5 0 01.945-1.395L6 13.01a1.5 1.5 0 011.62.33l1.612 1.597a7.028 7.028 0 005.7-5.685L13.32 7.626a1.5 1.5 0 01-.308-1.628l1.133-2.827a1.5 1.5 0 011.395-.923h3.96a2.25 2.25 0 012.25 2.25zm-18 15a.75.75 0 00.75.75h.06C9 19.903 19.5 17.691 20.25 4.543a.75.75 0 00-.705-.795H15.54l-1.132 2.828 2.137 2.152-.045.36c-.818 6.525-7.342 7.41-7.41 7.41l-.36.045-2.153-2.13-2.827 1.125v3.96z" fill="#E11E1E"/></svg>