<svg width="35" height="35" viewBox="0 0 35 35" fill="none" xmlns="http://www.w3.org/2000/svg"><path d="M14.984 8.471l-8.69 15.045a2.735 2.735 0 001 3.735l8.291 4.79a3.795 3.795 0 01-.273-1.416V13.251c0-1.558.603-3.056 1.684-4.178l3.49-3.604-2.604.733a4.922 4.922 0 00-2.898 2.27zM2.652 18.364a2.734 2.734 0 000 3.867l2.188 2.187c.07-.512.243-1.005.508-1.45 1.274-2.187 6.907-11.96 9.964-17.21-.366.285.301-.344-12.66 12.606zm21.252 2.964h.159v-2.187h-.159a1.094 1.094 0 000 2.187z" fill="#C1C1C1"/><path d="M27.89 1.57a7.454 7.454 0 01-1.607 3.5 2.733 2.733 0 00-3.921 0l-4.578 4.774a4.922 4.922 0 00-1.378 3.407v17.374a2.734 2.734 0 002.735 2.734h10.39a2.734 2.734 0 002.735-2.734V13.25a4.922 4.922 0 00-1.378-3.407L27.819 6.66a7.11 7.11 0 01-2.455 1.733 1.094 1.094 0 11-1.028-1.46 1.093 1.093 0 01.804.361c.336-.15.656-.334.957-.547a7.68 7.68 0 00.962-.858 8.324 8.324 0 001.925-4.184l-1.093-.137zm-3.986 16.477h.159v-1.33h1.093v1.33h.159a2.187 2.187 0 012.187 2.187H26.41a1.093 1.093 0 00-1.094-1.094h-.159v2.188h.159a2.188 2.188 0 010 4.375h-.159v1.329h-1.093v-1.33h-.16a2.187 2.187 0 01-2.187-2.187h1.094a1.094 1.094 0 001.094 1.094h.159v-2.187h-.16a2.188 2.188 0 010-4.375z" fill="#C1C1C1"/><path d="M26.409 23.516a1.093 1.093 0 00-1.094-1.094h-.159v2.187h.159a1.094 1.094 0 001.094-1.093z" fill="#C1C1C1"/></svg>