<svg width="16" height="16" viewBox="0 0 16 16" fill="none" xmlns="http://www.w3.org/2000/svg"><path fill-rule="evenodd" clip-rule="evenodd" d="M7.76 8.781V15h1V8.781H15v-1H8.76V1h-1v6.781H1v1h6.76z" fill="#E11E1E"/><path d="M7.76 15h-.5v.5h.5V15zm0-6.219h.5v-.5h-.5v.5zm1 6.219v.5h.5V15h-.5zm0-6.219v-.5h-.5v.5h.5zm6.24 0v.5h.5v-.5H15zm0-1h.5v-.5H15v.5zm-6.24 0h-.5v.5h.5v-.5zM8.76 1h.5V.5h-.5V1zm-1 0V.5h-.5V1h.5zm0 6.781v.5h.5v-.5h-.5zm-6.76 0v-.5H.5v.5H1zm0 1H.5v.5H1v-.5zM8.26 15V8.781h-1V15h1zm.5-.5h-1v1h1v-1zm-.5-5.719V15h1V8.781h-1zm6.74-.5H8.76v1H15v-1zm-.5-.5v1h1v-1h-1zm-5.74.5H15v-1H8.76v1zM8.26 1v6.781h1V1h-1zm-.5.5h1v-1h-1v1zm.5 6.281V1h-1v6.781h1zm-7.26.5h6.76v-1H1v1zm.5.5v-1h-1v1h1zm6.26-.5H1v1h6.76v-1z" fill="#E11E1E"/></svg>