<svg width="35" height="35" viewBox="0 0 35 35" fill="none" xmlns="http://www.w3.org/2000/svg"><path d="M3.433 25.353a1.311 1.311 0 01-.562-2.498c2.412-1.14 7.507-3.058 14.53-3.076h.099c7.067 0 12.194 1.925 14.629 3.076a1.312 1.312 0 01-1.123 2.37c-2.234-1.055-6.951-2.822-13.506-2.822h-.093c-6.512.019-11.2 1.776-13.414 2.822a1.314 1.314 0 01-.56.128zM17.5 15.22h-.1c-7.023-.017-12.118-1.934-14.53-3.075a1.312 1.312 0 011.122-2.37c2.215 1.048 6.905 2.808 13.415 2.824 6.602.018 11.354-1.762 13.598-2.824a1.312 1.312 0 111.123 2.37c-2.434 1.15-7.561 3.076-14.63 3.076zM3.432 18.812a1.312 1.312 0 110-2.624h28.135a1.312 1.312 0 110 2.624H3.432z" fill="#C1C1C1"/><path d="M16.849 10.773a.752.752 0 001.302 0l1.71-2.955a.752.752 0 00-.652-1.128h-.394V5.295a1.312 1.312 0 10-2.624 0V6.69h-.4a.752.752 0 00-.65 1.128l1.708 2.955zm.651-7.326a1.312 1.312 0 001.312-1.312v-.069a1.312 1.312 0 10-2.624 0v.069A1.312 1.312 0 0017.5 3.447zm.651 20.911a.752.752 0 00-1.303 0l-1.705 2.955a.752.752 0 00.65 1.128h.395v1.395a1.312 1.312 0 002.624 0v-1.395h.397a.753.753 0 00.65-1.128l-1.708-2.954zm-.651 7.195a1.312 1.312 0 00-1.312 1.312v.068a1.312 1.312 0 102.624 0v-.068a1.312 1.312 0 00-1.312-1.312z" fill="#C1C1C1"/></svg>