<svg width="35" height="35" viewBox="0 0 35 35" fill="none" xmlns="http://www.w3.org/2000/svg"><g clip-path="url(#clip0_109_1381)"><path d="M34.947 29.532c-.02-.063-2.118-6.319-5.204-12.49-1.828-3.658-3.647-6.583-5.406-8.693-2.34-2.807-4.64-4.23-6.837-4.23-2.198 0-4.498 1.423-6.837 4.23-1.759 2.11-3.578 5.035-5.406 8.692C2.17 23.213.073 29.47.053 29.531a1.025 1.025 0 00.972 1.35h32.95a1.025 1.025 0 00.972-1.35zm-25.684-2.77c-.575 0-1-.47-1.026-1.025-.025-.553.49-1.025 1.026-1.025.575 0 1 .47 1.025 1.025.025.554-.489 1.026-1.025 1.026zm2.059-5.793c-.575 0-1-.47-1.025-1.025-.025-.554.489-1.025 1.025-1.025.575 0 1 .47 1.025 1.025.025.554-.489 1.025-1.025 1.025zm2.06-6.562c-.575 0-1.001-.47-1.026-1.026-.025-.553.489-1.025 1.025-1.025.575 0 1 .47 1.026 1.025.024.554-.49 1.026-1.026 1.026zm2.059 10.296c-.575 0-1-.47-1.026-1.025-.025-.554.49-1.025 1.026-1.025.574 0 1 .47 1.025 1.025.025.554-.489 1.025-1.025 1.025zm2.059-8.237c-.575 0-1-.47-1.025-1.025-.025-.554.489-1.026 1.025-1.026.575 0 1 .47 1.025 1.026.025.553-.489 1.025-1.025 1.025zm2.06 4.119c-.575 0-1.001-.47-1.026-1.026-.025-.553.489-1.025 1.025-1.025.575 0 1 .47 1.026 1.025.024.554-.49 1.026-1.026 1.026zm0-8.238c-.575 0-1.001-.47-1.026-1.025-.025-.554.489-1.025 1.025-1.025.575 0 1 .47 1.026 1.025.024.554-.49 1.025-1.026 1.025zm2.059 14.68c-.575 0-1-.47-1.026-1.025-.025-.554.49-1.025 1.026-1.025.575 0 1 .47 1.025 1.025.025.554-.489 1.026-1.025 1.026zm2.059-4.383c-.575 0-1-.47-1.025-1.025-.025-.554.489-1.026 1.025-1.026.575 0 1 .47 1.025 1.026.025.553-.489 1.025-1.025 1.025zm0-5.845c-.575 0-1-.47-1.025-1.025-.025-.554.489-1.025 1.025-1.025.575 0 1 .47 1.025 1.025.025.554-.489 1.025-1.025 1.025zm4.119 9.964c-.575 0-1-.47-1.026-1.026-.025-.553.49-1.025 1.026-1.025.574 0 1 .47 1.025 1.025.025.554-.489 1.026-1.025 1.026z" fill="#C1C1C1"/></g><defs><clipPath id="clip0_109_1381"><path fill="#fff" d="M0 0h35v35H0z"/></clipPath></defs></svg>