<svg width="35" height="35" viewBox="0 0 35 35" fill="none" xmlns="http://www.w3.org/2000/svg"><path d="M34.967 11.767l-1.98-7.924a2.186 2.186 0 00-2.121-1.655H4.136a2.19 2.19 0 00-2.123 1.655l-1.98 7.924A1.07 1.07 0 000 12.03c0 3.016 2.33 5.47 5.195 5.47 1.665 0 3.15-.83 4.102-2.115.951 1.286 2.437 2.115 4.101 2.115 1.665 0 3.15-.83 4.102-2.115.952 1.286 2.435 2.115 4.102 2.115 1.666 0 3.15-.83 4.101-2.115.952 1.286 2.435 2.115 4.102 2.115C32.67 17.5 35 15.046 35 12.031c0-.09-.01-.18-.033-.264zm-5.162 7.921a7.157 7.157 0 01-4.102-1.287c-2.393 1.665-5.81 1.665-8.203 0-2.393 1.665-5.81 1.665-8.203 0a7.098 7.098 0 01-7.11.606v11.618a2.19 2.19 0 002.188 2.188h8.75v-8.75h8.75v8.75h8.75a2.19 2.19 0 002.188-2.188V19.007a7.094 7.094 0 01-3.008.68z" fill="#C1C1C1"/></svg>