<svg width="35" height="35" viewBox="0 0 35 35" fill="none" xmlns="http://www.w3.org/2000/svg"><path d="M29.105 13.03h-1.12l.394-.394a.547.547 0 00-.773-.773l-1.168 1.167H25.23a1.892 1.892 0 00-.148-.357l1.193-1.192a.547.547 0 00-.773-.773L24.309 11.9a1.924 1.924 0 00-.357-.148v-1.208l1.128-1.128a.548.548 0 00-.773-.775l-.355.354V7.878a.547.547 0 10-1.093 0v1.12l-.395-.395a.547.547 0 00-.773.774l1.168 1.167v1.208a1.91 1.91 0 00-.356.148l-1.193-1.192a.547.547 0 00-.773.773l1.192 1.192a1.892 1.892 0 00-.148.357h-1.208l-1.129-1.128a.547.547 0 00-.773.774l.354.354h-1.119a.547.547 0 000 1.094h1.12l-.394.394a.547.547 0 00.773.773l1.167-1.167h1.209c.037.124.087.243.148.357l-1.193 1.193a.546.546 0 00.773.773l1.193-1.193c.113.062.233.111.357.148v1.208l-1.129 1.128a.546.546 0 00.774.774l.355-.356v1.12a.547.547 0 101.094 0v-1.12l.394.395a.546.546 0 10.773-.774l-1.167-1.167v-1.208c.124-.037.243-.086.357-.148l1.192 1.193a.546.546 0 00.774-.773l-1.193-1.193a1.91 1.91 0 00.148-.357h1.208l1.128 1.128a.548.548 0 00.896-.596.547.547 0 00-.123-.178l-.354-.354h1.119a.547.547 0 000-1.094zM13.119 24.428l-.894-.656a.547.547 0 01-.223-.441V6.016a.547.547 0 10-1.094 0V23.33a.547.547 0 01-.224.441l-.893.656a2.826 2.826 0 103.328 0z" fill="#C1C1C1"/><path d="M15.283 21.954V6.016a3.828 3.828 0 00-7.656 0v15.938a6.107 6.107 0 107.656 0zm-1.056 7.523a3.918 3.918 0 11-5.086-5.932l.67-.492V6.016a1.64 1.64 0 113.282 0v17.038l.67.492a3.913 3.913 0 01.464 5.93z" fill="#C1C1C1"/></svg>