<svg width="35" height="35" viewBox="0 0 35 35" fill="none" xmlns="http://www.w3.org/2000/svg"><g clip-path="url(#clip0_119_1462)" fill="#C1C1C1"><path d="M5.84 33.04l-.388.389a2.73 2.73 0 01-1.937.801 2.7 2.7 0 01-1.937-.801 2.73 2.73 0 01-.8-1.937c0-.73.28-1.423.8-1.937l.39-.388L5.84 33.04zm-3.322-4.439l4.146-4.146 3.871 3.871-4.146 4.146-3.871-3.87zM7.23 23.89l2.32-2.32 3.871 3.871-2.32 2.321-3.872-3.871zm5.665-.121l-1.665-1.664 7.304-7.304a.942.942 0 011.322 0l.335.335a.944.944 0 010 1.33l-7.296 7.303z"/><path d="M33.623 1.377c.552.552.739 1.299.497 2.045l-6.183 19.5c-.226.7-.739 1.181-1.447 1.352a1.965 1.965 0 01-1.913-.536l-5.258-5.258 1.447-1.447a1.741 1.741 0 000-2.457l-.334-.335a1.723 1.723 0 00-1.23-.505c-.466 0-.902.178-1.228.505l-1.447 1.447-5.266-5.266a1.965 1.965 0 01-.536-1.913 1.937 1.937 0 011.353-1.447L31.577.88a1.977 1.977 0 012.046.498zm-4.418 7.816a.4.4 0 00-.241-.505.4.4 0 00-.506.24l-.529 1.502a.4.4 0 00.374.529.392.392 0 00.373-.265l.529-1.5zm-1.416 4.021a.4.4 0 00-.24-.505.4.4 0 00-.506.241l-1.416 4.021A.4.4 0 0026 17.5a.392.392 0 00.374-.264l1.415-4.022z"/></g><defs><clipPath id="clip0_119_1462"><path fill="#fff" d="M0 0h35v35H0z"/></clipPath></defs></svg>