<svg width="35" height="35" viewBox="0 0 35 35" fill="none" xmlns="http://www.w3.org/2000/svg"><path d="M33.53 32.94l-3.717-20.732a1.751 1.751 0 00-1.723-1.442h-6.18a6.269 6.269 0 001.878-4.478A6.295 6.295 0 0017.5 0a6.295 6.295 0 00-6.288 6.288c0 1.751.72 3.337 1.878 4.478H6.91a1.75 1.75 0 00-1.723 1.442L1.47 32.94A1.751 1.751 0 003.195 35h28.61a1.751 1.751 0 001.724-2.06zM17.5 3.502a2.79 2.79 0 012.786 2.786A2.79 2.79 0 0117.5 9.074a2.79 2.79 0 01-2.786-2.786A2.79 2.79 0 0117.5 3.502zM17.042 27.1a.522.522 0 01-.458.272h-.826a.522.522 0 01-.45-.258l-2.045-3.49-1.307 1.335v1.607a.806.806 0 11-1.613 0v-6.374a.806.806 0 011.613 0v2.74l3.103-3.377a.521.521 0 01.384-.169h.709a.522.522 0 01.375.884l-2.152 2.226 2.646 4.07c.104.16.113.365.021.534zm7.944-1.064a.52.52 0 01-.196.408c-.322.257-.746.487-1.272.691a5.347 5.347 0 01-1.948.373c-.835 0-1.563-.175-2.184-.525a3.342 3.342 0 01-1.4-1.504 4.858 4.858 0 01-.469-2.127c0-.832.175-1.571.523-2.217a3.522 3.522 0 011.531-1.488c.512-.265 1.15-.397 1.912-.397.992 0 1.766.208 2.324.623.241.18.445.39.612.63a.823.823 0 01-.523 1.28h-.002a.798.798 0 01-.822-.36 1.644 1.644 0 00-.426-.455c-.31-.227-.698-.34-1.163-.34-.704 0-1.265.223-1.68.67-.416.447-.624 1.11-.624 1.988 0 .948.21 1.66.632 2.133.421.474.973.711 1.656.711.338 0 .676-.066 1.016-.199.34-.132.63-.293.874-.482v-1.013h-1.174a.673.673 0 110-1.346h2.281c.289 0 .522.234.522.522v2.424z" fill="#C1C1C1"/></svg>