<svg width="48" height="48" viewBox="0 0 48 48" fill="none" xmlns="http://www.w3.org/2000/svg">
<g clip-path="url(#clip0_1_415)">
<path d="M31.2 24C31.2 25.9095 30.4415 27.7409 29.0912 29.0911C27.7409 30.4414 25.9096 31.2 24 31.2C22.0905 31.2 20.2591 30.4414 18.9089 29.0911C17.5586 27.7409 16.8 25.9095 16.8 24C16.8 23.5896 16.8432 23.1888 16.9176 22.8H14.4V32.3928C14.4 33.06 14.94 33.6 15.6072 33.6H32.3952C32.715 33.5993 33.0214 33.4719 33.2473 33.2455C33.4732 33.0192 33.6 32.7125 33.6 32.3928V22.8H31.0824C31.1568 23.1888 31.2 23.5896 31.2 24ZM24 28.8C24.6305 28.7998 25.2548 28.6755 25.8373 28.434C26.4197 28.1926 26.9489 27.8388 27.3946 27.3929C27.8404 26.9469 28.1939 26.4176 28.435 25.835C28.6762 25.2524 28.8002 24.6281 28.8 23.9976C28.7999 23.3671 28.6755 22.7428 28.4341 22.1603C28.1927 21.5779 27.8389 21.0487 27.3929 20.603C26.947 20.1572 26.4176 19.8037 25.8351 19.5626C25.2525 19.3214 24.6281 19.1974 23.9976 19.1976C22.7243 19.1979 21.5032 19.704 20.603 20.6046C19.7028 21.5053 19.1973 22.7266 19.1976 24C19.1979 25.2733 19.7041 26.4944 20.6047 27.3946C21.5053 28.2947 22.7267 28.8003 24 28.8ZM29.76 18.96H32.6376C32.8288 18.96 33.0122 18.8842 33.1476 18.7492C33.283 18.6143 33.3594 18.4311 33.36 18.24V15.3624C33.36 15.1708 33.2839 14.987 33.1484 14.8515C33.013 14.7161 32.8292 14.64 32.6376 14.64H29.76C29.5684 14.64 29.3847 14.7161 29.2492 14.8515C29.1137 14.987 29.0376 15.1708 29.0376 15.3624V18.24C29.04 18.636 29.364 18.96 29.76 18.96ZM24 0.959961C17.8894 0.959961 12.0291 3.38738 7.70828 7.70822C3.38744 12.0291 0.960022 17.8894 0.960022 24C0.960022 30.1106 3.38744 35.9709 7.70828 40.2917C12.0291 44.6125 17.8894 47.04 24 47.04C27.0257 47.04 30.0217 46.444 32.8171 45.2861C35.6124 44.1283 38.1523 42.4312 40.2918 40.2917C42.4312 38.1522 44.1283 35.6123 45.2862 32.817C46.4441 30.0216 47.04 27.0256 47.04 24C47.04 20.9743 46.4441 17.9783 45.2862 15.1829C44.1283 12.3876 42.4312 9.84768 40.2918 7.70822C38.1523 5.56876 35.6124 3.87165 32.8171 2.71378C30.0217 1.55591 27.0257 0.959961 24 0.959961ZM36 33.3336C36 34.8 34.8 36 33.3336 36H14.6664C13.2 36 12 34.8 12 33.3336V14.6664C12 13.2 13.2 12 14.6664 12H33.3336C34.8 12 36 13.2 36 14.6664V33.3336Z" fill="white"/>
</g>
<defs>
<clipPath id="clip0_1_415">
<rect width="48" height="48" fill="white"/>
</clipPath>
</defs>
</svg>
