<svg width="15" height="15" viewBox="0 0 15 15" fill="none" xmlns="http://www.w3.org/2000/svg">
<path d="M12.8137 14.4063L12.7233 14.4063C2.28428 13.8059 0.802091 4.99781 0.594904 2.30969C0.578209 2.10068 0.60292 1.89044 0.667619 1.691C0.732318 1.49156 0.835734 1.30685 0.971941 1.14745C1.10815 0.988044 1.27447 0.857084 1.46138 0.762071C1.64829 0.667058 1.8521 0.609859 2.06115 0.593751L4.98834 0.593751C5.20114 0.593545 5.40909 0.65724 5.58527 0.776587C5.76145 0.895933 5.89773 1.06543 5.97647 1.26313L6.78397 3.25C6.86172 3.44313 6.88101 3.65485 6.83945 3.85886C6.7979 4.06287 6.69732 4.25017 6.55022 4.3975L5.41865 5.53969C5.59541 6.54415 6.07644 7.47007 6.79666 8.1922C7.51688 8.91432 8.44154 9.39779 9.44553 9.57719L10.5983 8.435C10.7479 8.28952 10.937 8.19129 11.142 8.15256C11.347 8.11382 11.5588 8.1363 11.7512 8.21719L13.754 9.01938C13.9487 9.1006 14.1148 9.23794 14.2312 9.41392C14.3475 9.5899 14.4089 9.79653 14.4074 10.0075L14.4074 12.8125C14.4074 13.2352 14.2395 13.6406 13.9406 13.9395C13.6417 14.2383 13.2363 14.4063 12.8137 14.4063ZM2.18865 1.65625C2.04776 1.65625 1.91263 1.71222 1.813 1.81185C1.71337 1.91148 1.6574 2.0466 1.6574 2.1875L1.6574 2.23C1.90178 5.375 3.46897 12.8125 12.7818 13.3438C12.8516 13.3481 12.9215 13.3386 12.9876 13.3158C13.0537 13.293 13.1147 13.2574 13.167 13.211C13.2193 13.1646 13.262 13.1083 13.2925 13.0454C13.323 12.9825 13.3408 12.9142 13.3449 12.8444L13.3449 10.0075L11.3421 9.20531L9.8174 10.7194L9.5624 10.6875C4.94053 10.1084 4.31365 5.48656 4.31365 5.43875L4.28178 5.18375L5.79053 3.65906L4.99365 1.65625L2.18865 1.65625Z" fill="#E11E1E"/>
</svg>
