<svg width="17" height="17" viewBox="0 0 17 17" fill="none" xmlns="http://www.w3.org/2000/svg">
<path d="M15.6429 1.83945C15.5788 1.78412 15.5009 1.74732 15.4174 1.73305C15.334 1.71877 15.2482 1.72755 15.1694 1.75844L1.71153 7.02512C1.54784 7.08917 1.40934 7.2046 1.31685 7.35407C1.22435 7.50354 1.18285 7.67898 1.19857 7.85405C1.21429 8.02912 1.28638 8.19437 1.40402 8.32497C1.52166 8.45558 1.6785 8.54449 1.85098 8.57836L5.44489 9.28426V13.2812C5.44496 13.4665 5.50041 13.6476 5.60411 13.8012C5.70781 13.9547 5.85503 14.0738 6.02689 14.1431C6.19874 14.2124 6.38739 14.2288 6.56861 14.1901C6.74983 14.1514 6.91535 14.0595 7.04395 13.9261L8.81301 12.0912L11.5742 14.5118C11.7428 14.6609 11.96 14.7433 12.1851 14.7435C12.2834 14.7433 12.3811 14.7278 12.4747 14.6977C12.628 14.6492 12.766 14.5613 12.8749 14.4428C12.9837 14.3243 13.0595 14.1793 13.0949 14.0223L15.7923 2.29566C15.8113 2.21322 15.8074 2.12717 15.781 2.04678C15.7547 1.96639 15.707 1.8947 15.6429 1.83945ZM1.99508 7.7941C1.99254 7.78725 1.99254 7.77971 1.99508 7.77285C1.99808 7.77054 2.00145 7.76874 2.00504 7.76754L12.6108 3.61582L5.75102 8.52988L2.00504 7.79676L1.99508 7.7941ZM6.4702 13.3722C6.4519 13.3912 6.42835 13.4043 6.40257 13.4099C6.37679 13.4155 6.34993 13.4132 6.32543 13.4035C6.30092 13.3937 6.27988 13.3769 6.26498 13.3551C6.25008 13.3333 6.242 13.3076 6.24176 13.2812V9.83543L8.21336 11.562L6.4702 13.3722ZM12.3186 13.8424C12.3137 13.8648 12.3029 13.8856 12.2872 13.9024C12.2715 13.9192 12.2517 13.9315 12.2296 13.938C12.2071 13.9459 12.1829 13.9476 12.1596 13.9429C12.1362 13.9383 12.1145 13.9274 12.0968 13.9114L6.48348 8.98742L14.8082 3.02148L12.3186 13.8424Z" fill="#E11E1E"/>
</svg>
