<svg width="17" height="17" viewBox="0 0 17 17" fill="none" xmlns="http://www.w3.org/2000/svg">
<g clip-path="url(#clip0_606_7108)">
<path d="M10.3361 6.96028H9.60314C9.60314 6.14954 9.31465 5.86104 8.50391 5.86104V5.12826C9.71774 5.12826 10.3361 5.74658 10.3361 6.96028Z" fill="#E11E1E"/>
<path d="M11.8016 6.96028H11.0688C11.0688 5.3298 10.1345 4.39534 8.50391 4.39534V3.66256C10.5376 3.66256 11.8016 4.92671 11.8016 6.96028Z" fill="#E11E1E"/>
<path d="M13.2673 6.96028H12.5345C12.5345 4.55113 10.9131 2.92978 8.50391 2.92978V2.19687C11.3528 2.19687 13.2673 4.11141 13.2673 6.96028Z" fill="#E11E1E"/>
<path d="M4.83934 17V14.4718L4.0561 14.3801C2.18275 14.1511 0.717192 12.6123 0.570529 10.7207C0.48814 9.60304 0.442383 8.45805 0.442383 7.32674C0.442383 6.19543 0.48814 5.05499 0.570529 3.93281C0.717192 2.04121 2.21026 0.49769 4.12024 0.264075C7.02869 -0.088025 9.96894 -0.088025 12.8775 0.264075C14.7919 0.49769 16.2851 2.04121 16.4317 3.93281C16.5187 5.0503 16.5599 6.19543 16.5599 7.32674C16.5599 8.45805 16.5142 9.60304 16.4317 10.7207C16.2897 12.6076 14.824 14.1465 12.9553 14.3801C11.6468 14.542 10.3303 14.6321 9.0118 14.6504L4.83934 17ZM8.50338 0.731305C7.06894 0.731573 5.63572 0.818793 4.21176 0.992294C2.64542 1.18471 1.42247 2.4443 1.30344 3.99239C1.21636 5.09163 1.17516 6.21368 1.17516 7.32674C1.17516 8.43966 1.21636 9.56641 1.30344 10.6656C1.42314 12.2105 2.6108 13.4592 4.14775 13.6565C4.51099 13.7022 4.87597 13.742 5.24229 13.7755L5.57668 13.8076V15.7496L8.81951 13.9222H8.91103C10.2341 13.9074 11.5553 13.8187 12.8683 13.6565C14.3935 13.4688 15.5843 12.2092 15.7034 10.6702C15.7904 9.57097 15.8317 8.44422 15.8317 7.3313C15.8317 6.21824 15.7904 5.09619 15.7034 3.99239C15.5843 2.4443 14.3615 1.18471 12.7904 0.992294C11.3679 0.819196 9.93633 0.731976 8.50338 0.731305Z" fill="#E11E1E"/>
<path d="M9.94196 12.09H9.60301C6.16789 12.09 3.37403 9.29616 3.37403 5.86104V5.52209C3.37229 4.93758 3.60483 4.37669 4.01986 3.96488L4.32218 3.66256C4.79384 3.19077 5.61827 3.19077 6.09006 3.66256L7.03821 4.61071C7.27357 4.84446 7.40547 5.16288 7.40453 5.49458C7.40346 5.82602 7.27182 6.14363 7.03821 6.37859L6.95112 6.46568C6.77172 6.64562 6.67121 6.88943 6.67175 7.14344C6.67269 7.39732 6.77306 7.64059 6.95112 7.82134L7.63814 8.50836C7.99548 8.8657 8.64117 8.8657 8.99851 8.50836L9.08546 8.42141C9.55725 7.94962 10.3817 7.94962 10.8535 8.42141L11.8015 9.37399C12.2896 9.86229 12.2896 10.6537 11.8015 11.142L11.4993 11.4443C11.0875 11.8592 10.5266 12.0918 9.94196 12.09ZM5.20605 4.02902C5.06878 4.02875 4.93688 4.0831 4.83973 4.18011L4.53741 4.48243C4.26046 4.75737 4.10534 5.13188 4.10681 5.52209V5.86104C4.10936 8.89549 6.5687 11.3547 9.60301 11.3572H9.94196C10.3307 11.3576 10.7033 11.2025 10.9771 10.9268L11.2794 10.6245C11.3768 10.5273 11.4314 10.3955 11.4314 10.258C11.4314 10.1205 11.3768 9.98869 11.2794 9.89154L10.3359 8.94352C10.1306 8.74802 9.80831 8.74802 9.60301 8.94352L9.51605 9.03048C8.85439 9.6916 7.78226 9.6916 7.12059 9.03048L6.43357 8.34345C6.11676 8.02436 5.93897 7.59309 5.93897 7.14344C5.9383 6.69513 6.11623 6.26494 6.43357 5.94813L6.52066 5.86104C6.61714 5.76349 6.67148 5.63185 6.67175 5.49458C6.67202 5.35731 6.61767 5.22541 6.52066 5.12826L5.57251 4.18011C5.47523 4.0831 5.34346 4.02875 5.20605 4.02902Z" fill="#E11E1E"/>
</g>
<defs>
<clipPath id="clip0_606_7108">
<rect width="17" height="17" fill="white"/>
</clipPath>
</defs>
</svg>
