<svg width="48" height="48" viewBox="0 0 48 48" fill="none" xmlns="http://www.w3.org/2000/svg">
<g clip-path="url(#clip0_1_417)">
<path d="M27.8472 23.5992L22.4568 21.084C21.9864 20.8656 21.6 21.1104 21.6 21.6312V26.3688C21.6 26.8896 21.9864 27.1344 22.4568 26.916L27.8448 24.4008C28.3176 24.18 28.3176 23.82 27.8472 23.5992ZM24 0.959961C11.2752 0.959961 0.960022 11.2752 0.960022 24C0.960022 36.7248 11.2752 47.04 24 47.04C36.7248 47.04 47.04 36.7248 47.04 24C47.04 11.2752 36.7248 0.959961 24 0.959961ZM24 33.36C12.2064 33.36 12 32.2968 12 24C12 15.7032 12.2064 14.64 24 14.64C35.7936 14.64 36 15.7032 36 24C36 32.2968 35.7936 33.36 24 33.36Z" fill="white"/>
</g>
<defs>
<clipPath id="clip0_1_417">
<rect width="48" height="48" fill="white"/>
</clipPath>
</defs>
</svg>
