<svg width="11" height="18" viewBox="0 0 11 18" fill="none" xmlns="http://www.w3.org/2000/svg">
<mask id="path-1-inside-1_1_400" fill="white">
<path d="M1.14991 8.29764L8.81939 0.287559C8.99677 0.102146 9.23357 0 9.48606 0C9.73854 0 9.97534 0.102146 10.1527 0.287559L10.7175 0.87731C11.085 1.2616 11.085 1.88618 10.7175 2.26988L4.27728 8.99627L10.7247 15.7301C10.9021 15.9155 11 16.1627 11 16.4263C11 16.6901 10.9021 16.9373 10.7247 17.1228L10.1599 17.7124C9.98234 17.8979 9.74569 18 9.4932 18C9.24071 18 9.00392 17.8979 8.82653 17.7124L1.14991 9.69504C0.972101 9.50904 0.874441 9.26071 0.875002 8.99671C0.874441 8.73169 0.972101 8.48349 1.14991 8.29764Z"/>
</mask>
<path d="M1.14991 8.29764L8.81939 0.287559C8.99677 0.102146 9.23357 0 9.48606 0C9.73854 0 9.97534 0.102146 10.1527 0.287559L10.7175 0.87731C11.085 1.2616 11.085 1.88618 10.7175 2.26988L4.27728 8.99627L10.7247 15.7301C10.9021 15.9155 11 16.1627 11 16.4263C11 16.6901 10.9021 16.9373 10.7247 17.1228L10.1599 17.7124C9.98234 17.8979 9.74569 18 9.4932 18C9.24071 18 9.00392 17.8979 8.82653 17.7124L1.14991 9.69504C0.972101 9.50904 0.874441 9.26071 0.875002 8.99671C0.874441 8.73169 0.972101 8.48349 1.14991 8.29764Z" fill="#888C8F"/>
<path d="M1.14991 8.29764L-1.01782 6.22376L-1.01698 6.22289L1.14991 8.29764ZM8.81939 0.287559L10.9871 2.36143L10.9863 2.36231L8.81939 0.287559ZM10.1527 0.287559L7.98607 2.36256L7.985 2.36143L10.1527 0.287559ZM10.7175 0.87731L12.8842 -1.19769L12.8856 -1.19618L10.7175 0.87731ZM10.7175 2.26988L8.55062 0.195153L8.55101 0.194741L10.7175 2.26988ZM4.27728 8.99627L2.11037 11.071L0.123894 8.99627L2.11037 6.92154L4.27728 8.99627ZM10.7247 15.7301L12.8916 13.6554L12.8924 13.6562L10.7247 15.7301ZM10.7247 17.1228L12.8932 19.1959L12.8911 19.1981L10.7247 17.1228ZM10.1599 17.7124L7.99296 15.6377L7.99348 15.6372L10.1599 17.7124ZM8.82653 17.7124L10.9934 15.6377L10.9943 15.6386L8.82653 17.7124ZM1.14991 9.69504L-1.01696 11.7698L-1.01863 11.7681L1.14991 9.69504ZM0.875002 8.99671L3.87502 8.99036L3.87499 9.00308L0.875002 8.99671ZM-1.01698 6.22289L6.6525 -1.78719L10.9863 2.36231L3.3168 10.3724L-1.01698 6.22289ZM6.65166 -1.78632C7.38451 -2.55232 8.39985 -3 9.48606 -3V3C10.0673 3 10.609 2.75662 10.9871 2.36143L6.65166 -1.78632ZM9.48606 -3C10.5723 -3 11.5876 -2.55232 12.3205 -1.78632L7.985 2.36143C8.36307 2.75662 8.90483 3 9.48606 3V-3ZM12.3194 -1.78744L12.8842 -1.19769L8.55088 2.95231L7.98607 2.36256L12.3194 -1.78744ZM12.8856 -1.19618C14.3615 0.347037 14.3637 2.80019 12.884 4.34503L8.55101 0.194741C7.80637 0.972168 7.80859 2.17616 8.54943 2.9508L12.8856 -1.19618ZM12.8844 4.34461L6.44419 11.071L2.11037 6.92154L8.55062 0.195153L12.8844 4.34461ZM6.44419 6.92154L12.8916 13.6554L8.55777 17.8048L2.11037 11.071L6.44419 6.92154ZM12.8924 13.6562C13.6183 14.415 14 15.411 14 16.4263H8C8 16.9144 8.18584 17.4161 8.55695 17.804L12.8924 13.6562ZM14 16.4263C14 17.4415 13.6185 18.4372 12.8932 19.1959L8.55613 15.0498C8.18564 15.4374 8 15.9387 8 16.4263H14ZM12.8911 19.1981L12.3263 19.7877L7.99348 15.6372L8.55828 15.0476L12.8911 19.1981ZM12.3268 19.7872C11.5946 20.5519 10.5801 21 9.4932 21V15C8.9113 15 8.37007 15.2438 7.99296 15.6377L12.3268 19.7872ZM9.4932 21C8.407 21 7.39165 20.5523 6.65881 19.7863L10.9943 15.6386C10.6162 15.2434 10.0744 15 9.4932 15V21ZM6.65966 19.7872L-1.01696 11.7698L3.31678 7.62027L10.9934 15.6377L6.65966 19.7872ZM-1.01863 11.7681C-1.74772 11.0054 -2.12715 10.0052 -2.12499 8.99034L3.87499 9.00308C3.87603 8.51624 3.69192 8.0127 3.31845 7.62202L-1.01863 11.7681ZM-2.12499 9.00305C-2.12714 7.9886 -1.74862 6.98763 -1.01782 6.22376L3.31763 10.3715C3.69282 9.97935 3.87602 9.47478 3.87499 8.99036L-2.12499 9.00305Z" fill="white" mask="url(#path-1-inside-1_1_400)"/>
</svg>
