<svg width="11" height="18" viewBox="0 0 11 18" fill="none" xmlns="http://www.w3.org/2000/svg">
<mask id="path-1-inside-1_1_396" fill="white">
<path d="M9.85009 8.29764L2.18061 0.287559C2.00323 0.102146 1.76643 0 1.51394 0C1.26146 0 1.02466 0.102146 0.847276 0.287559L0.282472 0.87731C-0.0850498 1.2616 -0.0850498 1.88618 0.282472 2.26988L6.72272 8.99627L0.275326 15.7301C0.0979405 15.9155 0 16.1627 0 16.4263C0 16.6901 0.0979405 16.9373 0.275326 17.1228L0.84013 17.7124C1.01766 17.8979 1.25431 18 1.5068 18C1.75929 18 1.99608 17.8979 2.17347 17.7124L9.85009 9.69504C10.0279 9.50904 10.1256 9.26071 10.125 8.99671C10.1256 8.73169 10.0279 8.48349 9.85009 8.29764Z"/>
</mask>
<path d="M9.85009 8.29764L2.18061 0.287559C2.00323 0.102146 1.76643 0 1.51394 0C1.26146 0 1.02466 0.102146 0.847276 0.287559L0.282472 0.87731C-0.0850498 1.2616 -0.0850498 1.88618 0.282472 2.26988L6.72272 8.99627L0.275326 15.7301C0.0979405 15.9155 0 16.1627 0 16.4263C0 16.6901 0.0979405 16.9373 0.275326 17.1228L0.84013 17.7124C1.01766 17.8979 1.25431 18 1.5068 18C1.75929 18 1.99608 17.8979 2.17347 17.7124L9.85009 9.69504C10.0279 9.50904 10.1256 9.26071 10.125 8.99671C10.1256 8.73169 10.0279 8.48349 9.85009 8.29764Z" fill="white"/>
<path d="M9.85009 8.29764L12.0178 6.22376L12.017 6.22289L9.85009 8.29764ZM2.18061 0.287559L0.0128845 2.36143L0.0137218 2.36231L2.18061 0.287559ZM0.847276 0.287559L3.01393 2.36256L3.015 2.36143L0.847276 0.287559ZM0.282472 0.87731L-1.88418 -1.19769L-1.88562 -1.19618L0.282472 0.87731ZM0.282472 2.26988L2.44938 0.195153L2.44899 0.194741L0.282472 2.26988ZM6.72272 8.99627L8.88963 11.071L10.8761 8.99627L8.88963 6.92154L6.72272 8.99627ZM0.275326 15.7301L-1.89158 13.6554L-1.8924 13.6562L0.275326 15.7301ZM0.275326 17.1228L-1.89322 19.1959L-1.89107 19.1981L0.275326 17.1228ZM0.84013 17.7124L3.00704 15.6377L3.00652 15.6372L0.84013 17.7124ZM2.17347 17.7124L0.00659473 15.6377L0.00573903 15.6386L2.17347 17.7124ZM9.85009 9.69504L12.017 11.7698L12.0186 11.7681L9.85009 9.69504ZM10.125 8.99671L7.12498 8.99036L7.12501 9.00308L10.125 8.99671ZM12.017 6.22289L4.3475 -1.78719L0.0137218 2.36231L7.6832 10.3724L12.017 6.22289ZM4.34834 -1.78632C3.61549 -2.55232 2.60015 -3 1.51394 -3V3C0.932715 3 0.390957 2.75662 0.0128847 2.36143L4.34834 -1.78632ZM1.51394 -3C0.42774 -3 -0.587607 -2.55232 -1.32045 -1.78632L3.015 2.36143C2.63693 2.75662 2.09517 3 1.51394 3V-3ZM-1.31938 -1.78744L-1.88418 -1.19769L2.44912 2.95231L3.01393 2.36256L-1.31938 -1.78744ZM-1.88562 -1.19618C-3.36151 0.347037 -3.36372 2.80019 -1.88404 4.34503L2.44899 0.194741C3.19363 0.972168 3.19141 2.17616 2.45057 2.9508L-1.88562 -1.19618ZM-1.88444 4.34461L4.55581 11.071L8.88963 6.92154L2.44938 0.195153L-1.88444 4.34461ZM4.55581 6.92154L-1.89158 13.6554L2.44223 17.8048L8.88963 11.071L4.55581 6.92154ZM-1.8924 13.6562C-2.61828 14.415 -3 15.411 -3 16.4263H3C3 16.9144 2.81416 17.4161 2.44305 17.804L-1.8924 13.6562ZM-3 16.4263C-3 17.4415 -2.61848 18.4372 -1.89322 19.1959L2.44387 15.0498C2.81436 15.4374 3 15.9387 3 16.4263H-3ZM-1.89107 19.1981L-1.32626 19.7877L3.00652 15.6372L2.44172 15.0476L-1.89107 19.1981ZM-1.32678 19.7872C-0.594615 20.5519 0.419918 21 1.5068 21L1.5068 15C2.0887 15 2.62993 15.2438 3.00704 15.6377L-1.32678 19.7872ZM1.5068 21C2.593 21 3.60835 20.5523 4.34119 19.7863L0.00573903 15.6386C0.383814 15.2434 0.925574 15 1.5068 15L1.5068 21ZM4.34034 19.7872L12.017 11.7698L7.68322 7.62027L0.00659491 15.6377L4.34034 19.7872ZM12.0186 11.7681C12.7477 11.0054 13.1271 10.0052 13.125 8.99034L7.12501 9.00308C7.12397 8.51624 7.30808 8.0127 7.68155 7.62202L12.0186 11.7681ZM13.125 9.00305C13.1271 7.9886 12.7486 6.98763 12.0178 6.22376L7.68237 10.3715C7.30718 9.97935 7.12398 9.47478 7.12501 8.99036L13.125 9.00305Z" fill="white" mask="url(#path-1-inside-1_1_396)"/>
</svg>
