<svg width="10" height="11" viewBox="0 0 10 11" fill="none" xmlns="http://www.w3.org/2000/svg">
<path d="M1.02284 3.80799C1.14004 3.69082 1.29898 3.625 1.46471 3.625C1.63044 3.625 1.78938 3.69082 1.90658 3.80799L5.00033 6.90174L8.09407 3.80799C8.21195 3.69414 8.36983 3.63115 8.5337 3.63257C8.69757 3.63399 8.85433 3.69972 8.97021 3.8156C9.08609 3.93148 9.15182 4.08824 9.15324 4.25212C9.15467 4.41599 9.09167 4.57386 8.97782 4.69174L5.4422 8.22737C5.325 8.34454 5.16606 8.41036 5.00033 8.41036C4.8346 8.41036 4.67566 8.34454 4.55845 8.22737L1.02284 4.69174C0.905666 4.57454 0.839844 4.41559 0.839844 4.24987C0.839844 4.08414 0.905666 3.9252 1.02284 3.80799Z" fill="#1A2335"/>
</svg>
