<svg width="35" height="35" viewBox="0 0 35 35" fill="none" xmlns="http://www.w3.org/2000/svg">
<path d="M30.232 32.7836C30.232 33.5769 29.5865 34.2225 28.7931 34.2225H6.20647C5.41313 34.2225 4.76758 33.5769 4.76758 32.7836C4.76758 31.9903 5.41313 31.3447 6.20647 31.3447H28.7931C29.5865 31.3525 30.232 31.9981 30.232 32.7836Z" fill="#C1C1C1"/>
<path d="M19.6856 27.5566C19.6856 27.8211 19.9034 28.0389 20.1678 28.0389H27.9845V30.4111H7.01562V22.8511H27.9845V27.0822H20.1678C19.9034 27.0822 19.6856 27.2922 19.6856 27.5566Z" fill="#C1C1C1"/>
<path d="M30.232 20.4633C30.232 21.2566 29.5865 21.9022 28.7931 21.9022H6.20647C5.41313 21.9022 4.76758 21.2566 4.76758 20.4633C4.76758 19.67 5.41313 19.0244 6.20647 19.0244H28.7931C29.5865 19.0322 30.232 19.6777 30.232 20.4633Z" fill="#C1C1C1"/>
<path d="M27.9845 10.5156V18.0756H7.01562V13.4556H14.4978C14.7623 13.4556 14.9801 13.2378 14.9801 12.9733C14.9801 12.7089 14.7623 12.4911 14.4978 12.4911H7.01562V10.5L27.9845 10.5156Z" fill="#C1C1C1"/>
<path d="M30.232 8.13567C30.232 8.929 29.5865 9.57456 28.7931 9.57456H6.20647C5.41313 9.57456 4.76758 8.929 4.76758 8.13567C4.76758 7.34233 5.41313 6.69678 6.20647 6.69678H28.7931C29.5865 6.69678 30.232 7.34233 30.232 8.13567Z" fill="#C1C1C1"/>
<path d="M12.5371 3.55469H22.4616V5.7558H12.5371V3.55469Z" fill="#C1C1C1"/>
<path d="M20.9381 1.68783V2.59783H14.0703V1.68783C14.0703 1.19005 14.4825 0.777832 14.9803 0.777832H20.0281C20.5259 0.777832 20.9381 1.19005 20.9381 1.68783Z" fill="#C1C1C1"/>
</svg>
