<svg width="35" height="35" viewBox="0 0 35 35" fill="none" xmlns="http://www.w3.org/2000/svg">
<g clip-path="url(#clip0_119_1424)">
<path d="M20.8639 11.7655L20.6245 13.8923C20.6105 14.0227 20.6565 14.1524 20.7495 14.2448C20.8418 14.3414 20.9747 14.3879 21.107 14.3698L23.2382 14.1273C23.2807 14.1223 23.3176 14.1023 23.3582 14.0936L20.8964 11.6317C20.883 11.6756 20.8721 11.7203 20.8639 11.7655Z" fill="#C1C1C1"/>
<path d="M21.6514 10.6248L28.4605 3.81558L31.1944 6.54942L24.3852 13.3586L21.6514 10.6248Z" fill="#C1C1C1"/>
<path d="M29.3418 2.92407L30.2679 1.99794L33.0004 4.73044L32.0743 5.65657L29.3418 2.92407Z" fill="#C1C1C1"/>
<path d="M34.8034 2.92872C34.928 2.80838 34.9987 2.64264 34.999 2.46937C34.9992 2.29341 34.9287 2.12473 34.8034 2.00124L32.999 0.196232C32.876 0.070788 32.7078 0.000114822 32.5321 0C32.36 0.000631523 32.1953 0.0704436 32.0752 0.193763L31.1553 1.11188L33.8877 3.84431L34.8034 2.92872Z" fill="#C1C1C1"/>
<path d="M3.74993 26.2496H4.99989C5.34504 26.2496 5.62486 25.9697 5.62486 25.6246V0.624978C5.62492 0.279822 5.3451 0 4.99989 0H3.74993C1.67974 0.0020668 0.0020668 1.67974 0 3.74993V27.9458C0.947744 26.8672 2.31413 26.2492 3.74993 26.2496Z" fill="#C1C1C1"/>
<path d="M3.93118 34.9994H34.3744C34.7196 34.9994 34.9994 34.7196 34.9994 34.3745V9.37486C34.9994 9.0297 34.7196 8.74988 34.3744 8.74988H30.7495L24.8158 14.6873C24.4263 15.0692 23.9204 15.3101 23.3784 15.3716C21.269 15.6085 21.2497 15.6248 21.0672 15.6248H11.8748V22.4996H26.8746V19.3747C26.8746 19.0295 27.1544 18.7497 27.4996 18.7497C27.8447 18.7497 28.1245 19.0295 28.1245 19.3747V28.7495C28.1245 29.4399 27.5649 29.9995 26.8746 29.9995H14.3747C14.0296 29.9995 13.7498 29.7197 13.7498 29.3745C13.7498 29.0294 14.0296 28.7495 14.3747 28.7495H18.7496V23.7496H11.8748V32.4995C11.8748 32.8446 11.595 33.1244 11.2498 33.1244C10.9047 33.1244 10.6249 32.8446 10.6249 32.4995V15.6248H8.74987C8.40471 15.6248 8.12489 15.3449 8.12489 14.9998C8.12489 14.6546 8.40471 14.3748 8.74987 14.3748H19.4428C19.385 14.1744 19.3652 13.9649 19.3847 13.7573L19.6216 11.628C19.6826 11.0745 19.9329 10.5592 20.3303 10.1693L21.7497 8.74988H6.87488V25.6246C6.87488 26.6601 6.03541 27.4996 4.99989 27.4996H3.74993C1.67974 27.5016 0.0020668 29.1793 0 31.2495V31.387C0.139509 33.4458 1.86793 35.0341 3.93118 34.9994Z" fill="#C1C1C1"/>
<path d="M20 23.7496H26.8749V28.7496H20V23.7496Z" fill="#C1C1C1"/>
</g>
<defs>
<clipPath id="clip0_119_1424">
<rect width="35" height="35" fill="white"/>
</clipPath>
</defs>
</svg>
