<svg width="35" height="35" viewBox="0 0 35 35" fill="none" xmlns="http://www.w3.org/2000/svg">
<path d="M29.7312 13.0863L29.6784 13.0149L29.6679 12.994L24.8752 5.87927L20.0825 12.9941L20.0725 13.014L20.0193 13.0864C19.2502 14.1279 18.8438 15.3653 18.8438 16.6649C18.8438 19.9907 21.5495 22.6963 24.8752 22.6963C28.2009 22.6963 30.9066 19.9907 30.9066 16.6649C30.9067 15.3652 30.5002 14.1277 29.7312 13.0863Z" fill="#C1C1C1"/>
<path d="M24.8758 24.7514C20.4168 24.7514 16.7893 21.1238 16.7893 16.665C16.7893 14.9316 17.3293 13.28 18.3511 11.887L21.5017 7.20988L16.6447 0L6.52508 15.0222C4.93402 17.1874 4.09326 19.7546 4.09326 22.4485C4.09326 29.3694 9.72383 35 16.6448 35C23.2024 35 28.6008 29.9447 29.1494 23.5267C27.9086 24.3024 26.4438 24.7514 24.8758 24.7514Z" fill="#C1C1C1"/>
</svg>
