<svg width="44" height="44" viewBox="0 0 44 44" fill="none" xmlns="http://www.w3.org/2000/svg">
<g clip-path="url(#clip0_371_122)">
<path fill-rule="evenodd" clip-rule="evenodd" d="M0 22.1228C0 33.0605 7.94383 42.1557 18.3333 44V28.1105H12.8333V22H18.3333V17.1105C18.3333 11.6105 21.8772 8.55617 26.8895 8.55617C28.4772 8.55617 30.1895 8.8 31.7772 9.04383V14.6667H28.9667C26.2772 14.6667 25.6667 16.0105 25.6667 17.7228V22H31.5333L30.5562 28.1105H25.6667V44C36.0562 42.1557 44 33.0623 44 22.1228C44 9.955 34.1 0 22 0C9.9 0 0 9.955 0 22.1228Z" fill="white"/>
</g>
<defs>
<clipPath id="clip0_371_122">
<rect width="44" height="44" fill="white"/>
</clipPath>
</defs>
</svg>
