<svg width="35" height="35" viewBox="0 0 35 35" fill="none" xmlns="http://www.w3.org/2000/svg">
<path d="M1.74989 33.8333H30.5082C30.6329 33.8332 30.7543 33.7931 30.8545 33.7189C30.9547 33.6448 31.0286 33.5404 31.0652 33.4212C31.1018 33.302 31.0992 33.1743 31.0579 33.0566C31.0165 32.939 30.9386 32.8377 30.8355 32.7676L22.0837 26.8333C22.0726 26.8258 22.0598 26.8205 22.0487 26.8129L8.87122 17.878C8.86364 17.8733 8.85839 17.8663 8.8508 17.8611L2.07714 13.2679C1.98299 13.2012 1.87054 13.1651 1.75514 13.1647C1.65815 13.1656 1.56278 13.1896 1.47689 13.2347C1.38228 13.2832 1.30311 13.3572 1.24828 13.4483C1.19345 13.5394 1.16515 13.644 1.16655 13.7503V33.25C1.16655 33.4047 1.22801 33.5531 1.33741 33.6625C1.4468 33.7719 1.59518 33.8333 1.74989 33.8333Z" fill="#C1C1C1"/>
<path d="M33.1299 19.2138L32.5904 20.0001C32.5469 20.0631 32.4914 20.1169 32.427 20.1584C32.3626 20.1998 32.2907 20.2281 32.2153 20.2416C32.14 20.2559 32.0625 20.255 31.9876 20.2389C31.9126 20.2228 31.8417 20.1917 31.7789 20.1477L27.2511 17.0111L26.582 17.9666L31.1075 21.1055C31.1704 21.1493 31.2241 21.205 31.2655 21.2694C31.3068 21.3339 31.3351 21.4059 31.3486 21.4813C31.3622 21.5567 31.3607 21.6341 31.3444 21.7089C31.328 21.7837 31.2971 21.8546 31.2534 21.9175L30.7056 22.705L30.7762 22.7517L33.8364 22.2914H33.8434L33.2017 19.2669L33.1299 19.2138Z" fill="#C1C1C1"/>
<path d="M27.7552 15.9413L27.8905 16.0347L29.4072 13.7941L23.3364 14.9607L24.5031 21.0362L25.9282 18.9327L25.7532 18.8131C25.5437 18.6653 25.4004 18.4415 25.3539 18.1895C25.3073 17.9374 25.3612 17.6772 25.5041 17.4644L26.4024 16.1852C26.4746 16.0802 26.5668 15.9905 26.6739 15.9215C26.7809 15.8524 26.9005 15.8052 27.0259 15.7827C27.1513 15.7602 27.2799 15.7628 27.4043 15.7903C27.5287 15.8178 27.6463 15.8697 27.7505 15.9431L27.7552 15.9413Z" fill="#C1C1C1"/>
<path d="M33.5895 12.2961C33.7986 11.9868 33.8765 11.6073 33.8061 11.2407C33.7357 10.8741 33.5227 10.5505 33.2139 10.3407L20.0422 1.4099C19.8892 1.30611 19.7172 1.2335 19.5361 1.19623C19.355 1.15896 19.1684 1.15776 18.9868 1.19271C18.8053 1.22766 18.6324 1.29806 18.478 1.39989C18.3237 1.50172 18.191 1.63298 18.0874 1.78615L14.7729 6.67274L15.9664 7.50049L18.6789 3.49999C18.834 3.27284 19.0724 3.11598 19.3423 3.06345C19.6123 3.01093 19.892 3.06696 20.1209 3.2194L31.5 10.9328C31.7271 11.0894 31.8835 11.329 31.9354 11.5999C31.9872 11.8709 31.9304 12.1513 31.7771 12.3807L28.8488 16.6973L30.044 17.5251L33.5895 12.2961Z" fill="#C1C1C1"/>
<path d="M11.2805 5.46178C11.2668 5.38628 11.2682 5.30883 11.2845 5.23385C11.3008 5.15888 11.3317 5.08786 11.3755 5.02487L11.9233 4.23737L11.8533 4.19128L8.79313 4.65153H8.78613L9.4278 7.67612L9.50013 7.72395L10.0391 6.9417C10.0828 6.87864 10.1384 6.8248 10.2029 6.78326C10.2673 6.74172 10.3393 6.7133 10.4148 6.69962C10.4491 6.69333 10.4838 6.69021 10.5186 6.69028C10.6375 6.69022 10.7535 6.72645 10.8511 6.79412L15.3784 9.93128L16.0475 8.9787L11.522 5.83978C11.4588 5.79583 11.4049 5.7398 11.3634 5.67492C11.322 5.61005 11.2938 5.53761 11.2805 5.46178Z" fill="#C1C1C1"/>
<path d="M30.3359 12.4285L30.7424 11.8282L30.1422 11.4216L22.9258 12.8065L23.1189 13.8127L30.3359 12.4285Z" fill="#C1C1C1"/>
<path d="M20.0398 15.5931L13.9644 16.7581L21.2053 21.668L20.0398 15.5931Z" fill="#C1C1C1"/>
<path d="M19.5756 4.2572L19.1685 4.85745L22.5716 22.5943L23.1719 23.0015L23.5785 22.4012L20.1753 4.66379L19.5756 4.2572Z" fill="#C1C1C1"/>
<path d="M16.2231 10.7561C16.1518 10.8609 16.0603 10.9504 15.9539 11.0194C15.8475 11.0885 15.7284 11.1356 15.6036 11.158C15.5459 11.1685 15.4873 11.174 15.4286 11.1743C15.2665 11.1708 15.1079 11.1261 14.9678 11.0442L13.3345 13.4592L19.4111 12.2926L18.2444 6.2218L16.9243 8.16955C17.117 8.32126 17.2447 8.54052 17.2818 8.78292C17.3188 9.02532 17.2624 9.27273 17.1238 9.47505L16.2231 10.7561Z" fill="#C1C1C1"/>
<path d="M22.7058 11.6603L28.7766 10.4953L21.5415 5.59009L22.7058 11.6603Z" fill="#C1C1C1"/>
<path d="M24.067 23.7592C23.9701 23.8997 23.8406 24.0148 23.6895 24.0943C23.5384 24.1739 23.3703 24.2156 23.1996 24.2159C22.9914 24.2166 22.7879 24.1539 22.6162 24.0362L11.2401 16.3211C11.1261 16.245 11.0285 16.1467 10.9533 16.0322C10.878 15.9177 10.8266 15.7892 10.802 15.6543C10.7501 15.3849 10.8067 15.1058 10.9595 14.8779L13.9998 10.3921L12.8075 9.56665L9.15116 14.9578C8.94279 15.2629 8.86345 15.6379 8.93043 16.0013C8.99742 16.3646 9.20529 16.6867 9.50874 16.8974L22.7294 25.8621C23.0374 26.0641 23.4126 26.1366 23.7737 26.0639C24.1348 25.9912 24.4527 25.7791 24.6585 25.4736L28.0792 20.4219L26.8915 19.5959L24.067 23.7592Z" fill="#C1C1C1"/>
<path d="M12.4046 14.8248L11.998 15.4245L12.5983 15.8316L19.82 14.4468L19.6269 13.4406L12.4046 14.8248Z" fill="#C1C1C1"/>
</svg>
