<svg width="35" height="35" viewBox="0 0 35 35" fill="none" xmlns="http://www.w3.org/2000/svg">
<g clip-path="url(#clip0_119_1435)">
<path d="M34.7929 13.5417L32.3287 11.1097C32.1971 10.9795 32.0207 10.9081 31.8373 10.9081H29.9934C29.817 9.93648 29.2471 8.09114 27.4046 6.2486C25.4739 4.31932 21.4598 0.302433 17.2805 1.67733C16.9934 1.77112 16.7988 2.03997 16.7988 2.34239C16.7988 2.64481 16.9934 2.91223 17.2805 3.00745C19.9001 3.86993 21.1769 6.12549 21.6012 7.03972L19.4716 9.13983C19.3372 9.27286 19.2629 9.45202 19.2629 9.63967C19.2629 9.82731 19.3399 10.0065 19.4729 10.1381L23.9532 14.54C24.0848 14.6688 24.2613 14.7402 24.4433 14.7402H26.2088V16.4722C26.2088 16.6598 26.283 16.839 26.4174 16.9706L28.8802 19.404C29.0174 19.5384 29.1952 19.6056 29.373 19.6056C29.5508 19.6056 29.7286 19.5384 29.8631 19.404L34.7929 14.5387C34.9259 14.4071 35 14.2278 35 14.0403C35.0001 13.8525 34.9259 13.6733 34.7929 13.5417Z" fill="#C1C1C1"/>
<path d="M0.843264 28.8014C0.312596 29.3138 0.0129802 30.0041 0.000402204 30.7461C-0.0121758 31.4993 0.270624 32.2148 0.797053 32.7595C1.32212 33.3041 2.03332 33.6037 2.79777 33.6037C3.52723 33.6037 4.22305 33.3195 4.76629 32.793L22.4005 14.9782L19.0389 11.6754L0.843264 28.8014Z" fill="#C1C1C1"/>
</g>
<defs>
<clipPath id="clip0_119_1435">
<rect width="35" height="35" fill="white"/>
</clipPath>
</defs>
</svg>
