<svg width="44" height="44" viewBox="0 0 44 44" fill="none" xmlns="http://www.w3.org/2000/svg">
<path d="M22 0C9.84958 0 0 9.84958 0 22C0 34.1504 9.84958 44 22 44C34.1504 44 44 34.1504 44 22C44 9.84958 34.1504 0 22 0ZM16.6146 31.1185H12.1596V16.7819H16.6146V31.1185ZM14.3596 15.0219C12.9525 15.0219 12.0427 14.025 12.0427 12.7921C12.0427 11.534 12.98 10.5669 14.4169 10.5669C15.8537 10.5669 16.7337 11.534 16.7612 12.7921C16.7612 14.025 15.8537 15.0219 14.3596 15.0219ZM32.8854 31.1185H28.4304V23.1733C28.4304 21.324 27.7842 20.0681 26.1731 20.0681C24.9425 20.0681 24.2115 20.9183 23.8883 21.7365C23.7692 22.0275 23.7394 22.44 23.7394 22.8502V31.1162H19.2821V21.3538C19.2821 19.564 19.2248 18.0675 19.1652 16.7796H23.0358L23.2398 18.771H23.3292C23.9158 17.836 25.3527 16.4565 27.7567 16.4565C30.6877 16.4565 32.8854 18.4204 32.8854 22.6417V31.1185V31.1185Z" fill="white"/>
</svg>
