<svg width="35" height="35" viewBox="0 0 35 35" fill="none" xmlns="http://www.w3.org/2000/svg">
<path fill-rule="evenodd" clip-rule="evenodd" d="M19.6875 31.1948V32.8125H8.75V2.1875H19.6875V3.80516H17.5V4.94484H19.6875V5.99266H15.3125V7.13234H19.6875V8.18016H17.5V9.31984H19.6875V10.3677H15.3125V11.5073H19.6875V12.5552H17.5V13.6948H19.6875V14.7427H15.3125V15.8823H19.6875V16.9302H17.5V18.0698H19.6875V19.1177H15.3125V20.2573H19.6875V21.3052H17.5V22.4448H19.6875V23.4927H15.3125V24.6323H19.6875V25.6802H17.5V26.8198H19.6875V27.8677H15.3125V29.0073H19.6875V30.0552H17.5V31.1948H19.6875Z" fill="#C1C1C1"/>
<path fill-rule="evenodd" clip-rule="evenodd" d="M23.09 4.36844L21.8749 5.58359L21.0693 4.77805L23.6593 2.1875L26.2499 4.77805L25.4443 5.58359L24.2292 4.36844V30.6316L25.4443 29.4164L26.2499 30.222L23.6593 32.8125L21.0693 30.222L21.8749 29.4164L23.09 30.6316V4.36844Z" fill="#C1C1C1"/>
</svg>
