<svg width="187" height="27" viewBox="0 0 187 27" fill="none" xmlns="http://www.w3.org/2000/svg">
<path fill-rule="evenodd" clip-rule="evenodd" d="M159.894 18.4301C159.894 16.6538 157.719 16.3206 155.029 16.2098C149.307 15.8212 145.472 13.8781 145.415 8.32693C145.186 -2.77564 165.788 -2.77564 165.616 8.32693H159.207C159.207 4.94073 152.111 5.21827 151.882 8.27153C151.71 10.2143 153.713 10.603 156.059 10.8805C161.324 11.4356 166.475 12.1018 166.475 18.4858C166.475 29.2552 144.9 29.5881 145.072 18.2637H151.596C151.596 21.5388 159.894 21.4277 159.894 18.4301ZM72.6219 22.8711H62.2066L60.6615 26.0909H54.0231V25.1472L65.9264 0.111131H68.845L80.8054 25.1472V26.0909H74.167L72.6219 22.8711ZM67.357 10.4919L64.3813 17.2646H70.333L67.357 10.4919ZM50.761 12.7679C52.9357 13.8227 53.9657 15.7655 53.9657 18.0415C53.9086 22.5382 51.1045 26.1465 45.7251 26.1465H33.3066V0.444088H44.6377C49.2159 0.444088 52.8786 3.88595 52.8786 8.32693C52.8786 9.82573 52.0774 11.7131 50.761 12.7679ZM39.8305 6.27305V10.4365H44.1226C46.8124 10.4365 46.8124 6.27305 44.0655 6.27305H39.8305ZM39.8305 15.9322V20.3176H45.2673C48.014 20.3176 47.9569 15.9322 45.21 15.9322H39.8305ZM96.028 0.444088V17.431C96.028 19.5403 94.0251 20.5397 92.022 20.5951C90.0192 20.5951 87.9589 19.596 87.9589 17.4864V0.444088H81.4922V17.5975C81.4922 23.2597 86.5855 26.5349 92.022 26.5349C97.4588 26.5349 102.552 23.2597 102.552 17.5975V0.444088H96.028ZM113.196 17.8196V26.0909H106.329V0.444088H122.81V6.32845H113.196V11.9353H121.723V17.8196H113.196ZM132.882 6.27305H142.668V0.333018H126.129V26.0354H143.012V20.2065H132.882V15.7101H141.867V9.88139H132.882V6.27305ZM166.933 0.388679V6.27305H173.457V26.0909H180.152V6.27305H186.619V0.388679H166.933Z" fill="white"/>
<path d="M0 0V26.66H20.6485L27.5314 19.995V0H0ZM18.3029 17.7237H9.22841V8.93632H18.3029V17.7237Z" fill="#E11E1E"/>
</svg>
