<svg width="140" height="20" viewBox="0 0 140 20" fill="none" xmlns="http://www.w3.org/2000/svg">
<path fill-rule="evenodd" clip-rule="evenodd" d="M119.95 13.8261C119.95 12.4935 118.319 12.2435 116.301 12.1604C112.008 11.8689 109.132 10.4112 109.089 6.24677C108.917 -2.08226 124.372 -2.08226 124.244 6.24677H119.435C119.435 3.70647 114.112 3.91469 113.94 6.2052C113.811 7.66268 115.314 7.95422 117.074 8.16243C121.024 8.57885 124.888 9.07859 124.888 13.8678C124.888 21.9469 108.702 22.1967 108.831 13.7012H113.725C113.725 16.1582 119.95 16.0748 119.95 13.8261ZM54.4802 17.1577H46.6667L45.5076 19.5731H40.5276V18.8651L49.4573 0.0833691H51.6468L60.6194 18.8651V19.5731H55.6393L54.4802 17.1577ZM50.5305 7.87089L48.2982 12.9517H52.763L50.5305 7.87089ZM38.0804 9.57834C39.7118 10.3696 40.4845 11.8271 40.4845 13.5345C40.4417 16.9079 38.3381 19.6148 34.3025 19.6148H24.9863V0.333149H33.4868C36.9213 0.333149 39.669 2.9152 39.669 6.24677C39.669 7.37115 39.0679 8.78706 38.0804 9.57834ZM29.8805 4.70596V7.82932H33.1003C35.1182 7.82932 35.1182 4.70596 33.0575 4.70596H29.8805ZM29.8805 11.9522V15.242H33.9591C36.0196 15.242 35.9768 11.9522 33.9161 11.9522H29.8805ZM72.0391 0.333149V13.0766C72.0391 14.6589 70.5366 15.4086 69.0339 15.4502C67.5314 15.4502 65.9858 14.7007 65.9858 13.1181V0.333149H61.1345V13.2014C61.1345 17.4492 64.9555 19.9062 69.0339 19.9062C73.1125 19.9062 76.9333 17.4492 76.9333 13.2014V0.333149H72.0391ZM84.9185 13.3681V19.5731H79.7667V0.333149H92.1309V4.74753H84.9185V8.9537H91.3154V13.3681H84.9185ZM99.6869 4.70596H107.028V0.249826H94.6209V19.5315H107.286V15.1587H99.6869V11.7855H106.427V7.4129H99.6869V4.70596ZM125.231 0.291582V4.70596H130.125V19.5731H135.148V4.70596H139.999V0.291582H125.231Z" fill="#050505"/>
<path d="M0 0V20H15.4903L20.6537 15V0H0ZM13.7307 13.2961H6.92304V6.70392H13.7307V13.2961Z" fill="#E11E1E"/>
</svg>
