<svg width="34" height="34" viewBox="0 0 34 34" fill="none" xmlns="http://www.w3.org/2000/svg">
<path d="M0 34V0H26L30 4L34 7.8V34H0Z" fill="#E11E1E"/>
<path d="M19.68 24.256C19.68 23.648 19.7824 23.12 19.9872 22.672C20.1856 22.224 20.4736 21.8784 20.8512 21.6352C21.2224 21.392 21.6608 21.2704 22.1664 21.2704C22.672 21.2704 23.1104 21.392 23.4816 21.6352C23.8528 21.8784 24.1408 22.224 24.3456 22.672C24.544 23.12 24.6432 23.648 24.6432 24.256V25.4272H26.4V27.328H19.68V24.256ZM23.1456 24.3712C23.1456 23.9808 23.0624 23.6864 22.896 23.488C22.7232 23.2896 22.48 23.1904 22.1664 23.1904C21.8528 23.1904 21.6096 23.2896 21.4368 23.488C21.264 23.6864 21.1776 23.9808 21.1776 24.3712V25.4272H23.1456V24.3712Z" fill="white"/>
<path d="M19.68 20.3436V17.166C19.68 16.43 19.8176 15.7772 20.0928 15.2076C20.368 14.638 20.7584 14.1964 21.264 13.8828C21.7696 13.5692 22.3616 13.4124 23.04 13.4124C23.7184 13.4124 24.3104 13.5692 24.816 13.8828C25.3216 14.1964 25.712 14.638 25.9872 15.2076C26.2624 15.7772 26.4 16.43 26.4 17.166V20.3436H19.68ZM24.8832 17.2428C24.8832 16.6668 24.72 16.206 24.3936 15.8604C24.0672 15.5084 23.616 15.3324 23.04 15.3324C22.464 15.3324 22.0128 15.5084 21.6864 15.8604C21.36 16.206 21.1968 16.6668 21.1968 17.2428V18.4428H24.8832V17.2428Z" fill="white"/>
<path d="M21.1488 10.5116H22.6272V7.54518H24.096V10.5116H26.4V12.4124H19.68V7.14197H21.1488V10.5116Z" fill="white"/>
</svg>
