<svg width="85" height="85" viewBox="0 0 85 85" fill="none" xmlns="http://www.w3.org/2000/svg">
<path d="M0 0H85V65L75 75L65.5 85H0V0Z" fill="#E11E1E"/>
<path d="M24.36 14.2C25.88 14.2 27.2 14.456 28.32 14.968C29.44 15.464 30.304 16.184 30.912 17.128C31.52 18.056 31.824 19.152 31.824 20.416C31.824 21.68 31.52 22.776 30.912 23.704C30.304 24.632 29.44 25.352 28.32 25.864C27.2 26.36 25.88 26.608 24.36 26.608H21.432V31H16.68V14.2H24.36ZM24.072 22.864C25.048 22.864 25.784 22.656 26.28 22.24C26.776 21.808 27.024 21.2 27.024 20.416C27.024 19.632 26.776 19.024 26.28 18.592C25.784 18.16 25.048 17.944 24.072 17.944H21.432V22.864H24.072ZM34.1409 14.2H42.0849C43.9249 14.2 45.5569 14.544 46.9809 15.232C48.4049 15.92 49.5089 16.896 50.2929 18.16C51.0769 19.424 51.4689 20.904 51.4689 22.6C51.4689 24.296 51.0769 25.776 50.2929 27.04C49.5089 28.304 48.4049 29.28 46.9809 29.968C45.5569 30.656 43.9249 31 42.0849 31H34.1409V14.2ZM41.8929 27.208C43.3329 27.208 44.4849 26.8 45.3489 25.984C46.2289 25.168 46.6689 24.04 46.6689 22.6C46.6689 21.16 46.2289 20.032 45.3489 19.216C44.4849 18.4 43.3329 17.992 41.8929 17.992H38.8929V27.208H41.8929ZM58.7211 17.872V21.568H66.1371V25.24H58.7211V31H53.9691V14.2H67.1451V17.872H58.7211Z" fill="white"/>
</svg>
