<svg width="85" height="85" viewBox="0 0 85 85" fill="none" xmlns="http://www.w3.org/2000/svg">
<path d="M0 0H85V65L75 75L65.5 85H0V0Z" fill="#E11E1E"/>
<path d="M24.36 49.2C25.88 49.2 27.2 49.456 28.32 49.968C29.44 50.464 30.304 51.184 30.912 52.128C31.52 53.056 31.824 54.152 31.824 55.416C31.824 56.68 31.52 57.776 30.912 58.704C30.304 59.632 29.44 60.352 28.32 60.864C27.2 61.36 25.88 61.608 24.36 61.608H21.432V66H16.68V49.2H24.36ZM24.072 57.864C25.048 57.864 25.784 57.656 26.28 57.24C26.776 56.808 27.024 56.2 27.024 55.416C27.024 54.632 26.776 54.024 26.28 53.592C25.784 53.16 25.048 52.944 24.072 52.944H21.432V57.864H24.072ZM34.1409 49.2H42.0849C43.9249 49.2 45.5569 49.544 46.9809 50.232C48.4049 50.92 49.5089 51.896 50.2929 53.16C51.0769 54.424 51.4689 55.904 51.4689 57.6C51.4689 59.296 51.0769 60.776 50.2929 62.04C49.5089 63.304 48.4049 64.28 46.9809 64.968C45.5569 65.656 43.9249 66 42.0849 66H34.1409V49.2ZM41.8929 62.208C43.3329 62.208 44.4849 61.8 45.3489 60.984C46.2289 60.168 46.6689 59.04 46.6689 57.6C46.6689 56.16 46.2289 55.032 45.3489 54.216C44.4849 53.4 43.3329 52.992 41.8929 52.992H38.8929V62.208H41.8929ZM58.7211 52.872V56.568H66.1371V60.24H58.7211V66H53.9691V49.2H67.1451V52.872H58.7211Z" fill="white"/>
</svg>
