<svg width="34" height="34" viewBox="0 0 34 34" fill="none" xmlns="http://www.w3.org/2000/svg">
<path d="M34 34V0H8L4 4L-5.06639e-07 7.8V34H34Z" fill="#E11E1E"/>
<path d="M14.32 24.256C14.32 23.648 14.2176 23.12 14.0128 22.672C13.8144 22.224 13.5264 21.8784 13.1488 21.6352C12.7776 21.392 12.3392 21.2704 11.8336 21.2704C11.328 21.2704 10.8896 21.392 10.5184 21.6352C10.1472 21.8784 9.8592 22.224 9.6544 22.672C9.456 23.12 9.3568 23.648 9.3568 24.256V25.4272H7.6V27.328H14.32V24.256ZM10.8544 24.3712C10.8544 23.9808 10.9376 23.6864 11.104 23.488C11.2768 23.2896 11.52 23.1904 11.8336 23.1904C12.1472 23.1904 12.3904 23.2896 12.5632 23.488C12.736 23.6864 12.8224 23.9808 12.8224 24.3712V25.4272H10.8544V24.3712Z" fill="white"/>
<path d="M14.32 20.3436V17.166C14.32 16.43 14.1824 15.7772 13.9072 15.2076C13.632 14.638 13.2416 14.1964 12.736 13.8828C12.2304 13.5692 11.6384 13.4124 10.96 13.4124C10.2816 13.4124 9.6896 13.5692 9.184 13.8828C8.6784 14.1964 8.288 14.638 8.0128 15.2076C7.7376 15.7772 7.6 16.43 7.6 17.166V20.3436H14.32ZM9.1168 17.2428C9.1168 16.6668 9.28 16.206 9.6064 15.8604C9.9328 15.5084 10.384 15.3324 10.96 15.3324C11.536 15.3324 11.9872 15.5084 12.3136 15.8604C12.64 16.206 12.8032 16.6668 12.8032 17.2428V18.4428H9.1168V17.2428Z" fill="white"/>
<path d="M12.8512 10.5116H11.3728V7.54518H9.904V10.5116H7.6V12.4124H14.32V7.14197H12.8512V10.5116Z" fill="white"/>
</svg>
