<svg width="36" height="36" viewBox="0 0 36 36" fill="none" xmlns="http://www.w3.org/2000/svg">
<path d="M36 -3.8743e-07V36H8.47059L4.23529 31.7647L-3.8743e-07 27.7412V-3.8743e-07H36Z" fill="#E11E1E"/>
<path d="M15.1624 10.3172C15.1624 10.9609 15.0539 11.52 14.8371 11.9944C14.627 12.4687 14.3221 12.8346 13.9223 13.0921C13.5292 13.3496 13.065 13.4784 12.5297 13.4784C11.9944 13.4784 11.5302 13.3496 11.1371 13.0921C10.7441 12.8346 10.4392 12.4687 10.2223 11.9944C10.0122 11.52 9.9072 10.9609 9.9072 10.3172V9.07708H8.04706V7.06447H15.1624V10.3172ZM11.4929 10.1952C11.4929 10.6086 11.581 10.9203 11.7572 11.1304C11.9401 11.3404 12.1976 11.4455 12.5297 11.4455C12.8617 11.4455 13.1192 11.3404 13.3022 11.1304C13.4852 10.9203 13.5767 10.6086 13.5767 10.1952V9.07708H11.4929V10.1952Z" fill="white"/>
<path d="M15.1624 14.4597V17.8242C15.1624 18.6035 15.0167 19.2947 14.7253 19.8978C14.4339 20.5009 14.0205 20.9685 13.4852 21.3005C12.9498 21.6326 12.323 21.7986 11.6047 21.7986C10.8864 21.7986 10.2596 21.6326 9.72423 21.3005C9.18889 20.9685 8.77553 20.5009 8.48414 19.8978C8.19275 19.2947 8.04706 18.6035 8.04706 17.8242V14.4597H15.1624ZM9.65308 17.7429C9.65308 18.3528 9.82588 18.8407 10.1715 19.2066C10.5171 19.5793 10.9948 19.7657 11.6047 19.7657C12.2146 19.7657 12.6923 19.5793 13.0379 19.2066C13.3835 18.8407 13.5563 18.3528 13.5563 17.7429V16.4723H9.65308V17.7429Z" fill="white"/>
<path d="M13.6072 24.8701H12.0418V28.011H10.4866V24.8701H8.04706V22.8575H15.1624V28.4379H13.6072V24.8701Z" fill="white"/>
</svg>
