<svg width="34" height="34" viewBox="0 0 34 34" fill="none" xmlns="http://www.w3.org/2000/svg">
<path d="M0 -5.06639e-07V34H26L30 30L34 26.2V-5.06639e-07H0Z" fill="#E11E1E"/>
<path d="M19.68 9.744C19.68 10.352 19.7824 10.88 19.9872 11.328C20.1856 11.776 20.4736 12.1216 20.8512 12.3648C21.2224 12.608 21.6608 12.7296 22.1664 12.7296C22.672 12.7296 23.1104 12.608 23.4816 12.3648C23.8528 12.1216 24.1408 11.776 24.3456 11.328C24.544 10.88 24.6432 10.352 24.6432 9.744V8.5728H26.4V6.672H19.68V9.744ZM23.1456 9.6288C23.1456 10.0192 23.0624 10.3136 22.896 10.512C22.7232 10.7104 22.48 10.8096 22.1664 10.8096C21.8528 10.8096 21.6096 10.7104 21.4368 10.512C21.264 10.3136 21.1776 10.0192 21.1776 9.6288V8.5728H23.1456V9.6288Z" fill="white"/>
<path d="M19.68 13.6564V16.834C19.68 17.57 19.8176 18.2228 20.0928 18.7924C20.368 19.362 20.7584 19.8036 21.264 20.1172C21.7696 20.4308 22.3616 20.5876 23.04 20.5876C23.7184 20.5876 24.3104 20.4308 24.816 20.1172C25.3216 19.8036 25.712 19.362 25.9872 18.7924C26.2624 18.2228 26.4 17.57 26.4 16.834V13.6564H19.68ZM24.8832 16.7572C24.8832 17.3332 24.72 17.794 24.3936 18.1396C24.0672 18.4916 23.616 18.6676 23.04 18.6676C22.464 18.6676 22.0128 18.4916 21.6864 18.1396C21.36 17.794 21.1968 17.3332 21.1968 16.7572V15.5572H24.8832V16.7572Z" fill="white"/>
<path d="M21.1488 23.4884H22.6272V26.4548H24.096V23.4884H26.4V21.5876H19.68V26.858H21.1488V23.4884Z" fill="white"/>
</svg>
