<svg width="24" height="24" viewBox="0 0 24 24" fill="none" xmlns="http://www.w3.org/2000/svg">
<path d="M21.75 4.49807V4.62557C20.9025 19.3631 8.4675 21.4556 4.6725 21.7481C4.37744 21.7716 4.08062 21.7368 3.79906 21.6454C3.5175 21.5541 3.25673 21.4081 3.03169 21.2158C2.80665 21.0235 2.62177 20.7887 2.48763 20.5248C2.35349 20.2609 2.27274 19.9732 2.25 19.6781L2.25 15.5456C2.24971 15.2452 2.33963 14.9516 2.50812 14.7028C2.67661 14.4541 2.9159 14.2617 3.195 14.1506L6 13.0106C6.27266 12.9008 6.57156 12.8736 6.85957 12.9322C7.14758 12.9909 7.412 13.1329 7.62 13.3406L9.2325 14.9381C10.6506 14.6885 11.9578 14.0094 12.9772 12.9927C13.9967 11.9759 14.6792 10.6705 14.9325 9.25307L13.32 7.62557C13.1146 7.41445 12.9759 7.14753 12.9213 6.85811C12.8666 6.56869 12.8983 6.26958 13.0125 5.99807L14.145 3.17057C14.2597 2.89568 14.4536 2.66115 14.702 2.49686C14.9504 2.33257 15.2422 2.24597 15.54 2.24807H19.5C20.0967 2.24807 20.669 2.48513 21.091 2.90708C21.5129 3.32904 21.75 3.90134 21.75 4.49807ZM3.75 19.4981C3.75 19.697 3.82902 19.8878 3.96967 20.0284C4.11032 20.1691 4.30109 20.2481 4.5 20.2481H4.56C9 19.9031 19.5 17.6906 20.25 4.54307C20.2561 4.44454 20.2427 4.34578 20.2105 4.25245C20.1783 4.15911 20.1281 4.07305 20.0626 3.99919C19.9971 3.92533 19.9176 3.86513 19.8288 3.82203C19.74 3.77894 19.6436 3.75381 19.545 3.74807H15.54L14.4075 6.57557L16.545 8.72807L16.5 9.08807C15.6825 15.6131 9.1575 16.4981 9.09 16.4981L8.73 16.5431L6.5775 14.4131L3.75 15.5381L3.75 19.4981Z" fill="#E11E1E"/>
</svg>
