<svg width="35" height="35" viewBox="0 0 35 35" fill="none" xmlns="http://www.w3.org/2000/svg">
<path d="M14.9839 8.47109L6.29407 23.5156C5.93148 24.1437 5.83322 24.89 6.0209 25.5905C6.20859 26.2909 6.66683 26.8882 7.29485 27.2508L15.5855 32.0414C15.4046 31.5911 15.3118 31.1103 15.312 30.625V13.2508C15.3111 11.6925 15.915 10.1946 16.9964 9.07266L20.4855 5.46875L17.8823 6.20156C16.659 6.55468 15.6201 7.36815 14.9839 8.47109Z" fill="#C1C1C1"/>
<path d="M2.65215 18.3643C2.13953 18.877 1.85156 19.5724 1.85156 20.2975C1.85156 21.0225 2.13953 21.7179 2.65215 22.2307L4.83965 24.4182C4.90954 23.9057 5.08255 23.4127 5.34824 22.9689C6.62246 20.7814 12.2553 11.0088 15.3123 5.75879C14.9459 6.04316 15.6131 5.41426 2.65215 18.3643Z" fill="#C1C1C1"/>
<path d="M23.9043 21.3281H24.0629V19.1406H23.9043C23.6142 19.1406 23.336 19.2559 23.1309 19.461C22.9258 19.6661 22.8105 19.9443 22.8105 20.2344C22.8105 20.5245 22.9258 20.8027 23.1309 21.0078C23.336 21.2129 23.6142 21.3281 23.9043 21.3281Z" fill="#C1C1C1"/>
<path d="M27.8906 1.56934C27.6706 2.85671 27.1161 4.06367 26.2828 5.06934C26.028 4.80722 25.7232 4.59887 25.3864 4.4566C25.0497 4.31432 24.6878 4.24102 24.3223 4.24102C23.9567 4.24102 23.5948 4.31432 23.2581 4.4566C22.9213 4.59887 22.6165 4.80722 22.3617 5.06934L17.7844 9.84355C16.9023 10.7587 16.4085 11.9796 16.4062 13.2506V30.6248C16.4062 31.35 16.6943 32.0455 17.2071 32.5583C17.7199 33.0711 18.4154 33.3592 19.1406 33.3592H29.5312C30.2565 33.3592 30.952 33.0711 31.4647 32.5583C31.9775 32.0455 32.2656 31.35 32.2656 30.6248V13.2506C32.2634 11.9796 31.7696 10.7587 30.8875 9.84355L27.8195 6.66074C27.1339 7.407 26.2968 7.99808 25.3641 8.39434C25.2969 8.58329 25.179 8.75013 25.0234 8.87663C24.8678 9.00313 24.6804 9.08441 24.4817 9.11159C24.283 9.13876 24.0807 9.11079 23.8968 9.03073C23.713 8.95066 23.5547 8.82159 23.4392 8.65762C23.3238 8.49365 23.2556 8.30109 23.2422 8.101C23.2288 7.90091 23.2707 7.70098 23.3632 7.52308C23.4558 7.34518 23.5955 7.19616 23.767 7.0923C23.9386 6.98843 24.1354 6.93374 24.3359 6.93418C24.4876 6.9353 24.6375 6.96797 24.7758 7.03011C24.9142 7.09224 25.0382 7.18249 25.1398 7.29512C25.4759 7.14436 25.7964 6.96121 26.0969 6.74824C26.4412 6.48951 26.7632 6.2023 27.0594 5.88965C28.0817 4.70392 28.7489 3.25388 28.9844 1.70605L27.8906 1.56934ZM23.9039 18.0467H24.0625V16.7178H25.1562V18.0467H25.3148C25.895 18.0467 26.4514 18.2771 26.8616 18.6874C27.2719 19.0976 27.5023 19.654 27.5023 20.2342H26.4086C26.4086 19.9441 26.2934 19.6659 26.0882 19.4608C25.8831 19.2557 25.6049 19.1404 25.3148 19.1404H25.1562V21.3279H25.3148C25.895 21.3279 26.4514 21.5584 26.8616 21.9686C27.2719 22.3789 27.5023 22.9353 27.5023 23.5154C27.5023 24.0956 27.2719 24.652 26.8616 25.0622C26.4514 25.4725 25.895 25.7029 25.3148 25.7029H25.1562V27.0318H24.0625V25.7029H23.9039C23.3237 25.7029 22.7673 25.4725 22.3571 25.0622C21.9469 24.652 21.7164 24.0956 21.7164 23.5154H22.8102C22.8102 23.8055 22.9254 24.0837 23.1305 24.2888C23.3356 24.4939 23.6138 24.6092 23.9039 24.6092H24.0625V22.4217H23.9039C23.3237 22.4217 22.7673 22.1912 22.3571 21.781C21.9469 21.3707 21.7164 20.8143 21.7164 20.2342C21.7164 19.654 21.9469 19.0976 22.3571 18.6874C22.7673 18.2771 23.3237 18.0467 23.9039 18.0467Z" fill="#C1C1C1"/>
<path d="M26.4086 23.5156C26.4086 23.2255 26.2934 22.9473 26.0882 22.7422C25.8831 22.5371 25.6049 22.4219 25.3148 22.4219H25.1562V24.6094H25.3148C25.6049 24.6094 25.8831 24.4941 26.0882 24.289C26.2934 24.0839 26.4086 23.8057 26.4086 23.5156Z" fill="#C1C1C1"/>
</svg>
