<svg width="24" height="25" viewBox="0 0 24 25" fill="none" xmlns="http://www.w3.org/2000/svg">
<path d="M19.95 21.5C20.1167 21.5 20.2917 21.496 20.475 21.488C20.6583 21.4793 20.8333 21.4667 21 21.45V15.6L16 14.6L13.1 17.5C11.8333 16.7333 10.6707 15.825 9.612 14.775C8.554 13.725 7.675 12.6 6.975 11.4L9.825 8.525L8.9 3.5H3.05C3.01667 3.66667 3 3.84167 3 4.025V4.55C3 6.7 3.47933 8.79567 4.438 10.837C5.396 12.879 6.66267 14.6917 8.238 16.275C9.81267 17.8583 11.6207 19.125 13.662 20.075C15.704 21.025 17.8 21.5 19.95 21.5Z" fill="#E11E1E"/>
</svg>
