<svg width="16" height="16" viewBox="0 0 16 16" fill="none" xmlns="http://www.w3.org/2000/svg">
<path fill-rule="evenodd" clip-rule="evenodd" d="M7.75977 8.78125V15H8.75977V8.78125H15V7.78125H8.75977V1H7.75977V7.78125H1V8.78125H7.75977Z" fill="#E11E1E"/>
<path d="M7.75977 15H7.25977V15.5H7.75977V15ZM7.75977 8.78125H8.25977V8.28125H7.75977V8.78125ZM8.75977 15V15.5H9.25977V15H8.75977ZM8.75977 8.78125V8.28125H8.25977V8.78125H8.75977ZM15 8.78125V9.28125H15.5V8.78125H15ZM15 7.78125H15.5V7.28125H15V7.78125ZM8.75977 7.78125H8.25977V8.28125H8.75977V7.78125ZM8.75977 1H9.25977V0.5H8.75977V1ZM7.75977 1V0.5H7.25977V1H7.75977ZM7.75977 7.78125V8.28125H8.25977V7.78125H7.75977ZM1 7.78125V7.28125H0.5V7.78125H1ZM1 8.78125H0.5V9.28125H1V8.78125ZM8.25977 15V8.78125H7.25977V15H8.25977ZM8.75977 14.5H7.75977V15.5H8.75977V14.5ZM8.25977 8.78125V15H9.25977V8.78125H8.25977ZM15 8.28125H8.75977V9.28125H15V8.28125ZM14.5 7.78125V8.78125H15.5V7.78125H14.5ZM8.75977 8.28125H15V7.28125H8.75977V8.28125ZM8.25977 1V7.78125H9.25977V1H8.25977ZM7.75977 1.5H8.75977V0.5H7.75977V1.5ZM8.25977 7.78125V1H7.25977V7.78125H8.25977ZM1 8.28125H7.75977V7.28125H1V8.28125ZM1.5 8.78125V7.78125H0.5V8.78125H1.5ZM7.75977 8.28125H1V9.28125H7.75977V8.28125Z" fill="#E11E1E"/>
</svg>
