<svg width="18" height="18" viewBox="0 0 18 18" fill="none" xmlns="http://www.w3.org/2000/svg">
<path d="M5.25 6.75L9 9.375L12.75 6.75" stroke="#E11E1E" stroke-width="1.2" stroke-linecap="round" stroke-linejoin="round"/>
<path d="M1.5 12.75V5.25C1.5 4.85218 1.65804 4.47064 1.93934 4.18934C2.22064 3.90804 2.60218 3.75 3 3.75H15C15.3978 3.75 15.7794 3.90804 16.0607 4.18934C16.342 4.47064 16.5 4.85218 16.5 5.25V12.75C16.5 13.1478 16.342 13.5294 16.0607 13.8107C15.7794 14.092 15.3978 14.25 15 14.25H3C2.60218 14.25 2.22064 14.092 1.93934 13.8107C1.65804 13.5294 1.5 13.1478 1.5 12.75Z" stroke="#E11E1E" stroke-width="1.2"/>
</svg>
