<svg width="35" height="35" viewBox="0 0 35 35" fill="none" xmlns="http://www.w3.org/2000/svg">
<path d="M3.43284 25.3531C3.13472 25.3534 2.84538 25.2522 2.61249 25.066C2.3796 24.8799 2.21705 24.62 2.15161 24.3292C2.08618 24.0383 2.12178 23.7338 2.25253 23.4659C2.38328 23.198 2.60139 22.9826 2.87093 22.8552C5.28265 21.7143 10.3782 19.7968 17.4007 19.7791H17.4998C24.5675 19.7791 29.6938 21.7041 32.1287 22.8552C32.4297 23.012 32.6583 23.2793 32.7663 23.6009C32.8744 23.9226 32.8536 24.2737 32.7083 24.5804C32.5631 24.887 32.3046 25.1255 31.9872 25.2456C31.6698 25.3657 31.3182 25.3582 31.0063 25.2246C28.7723 24.1698 24.0548 22.4027 17.4998 22.4027H17.4069C10.895 22.4218 6.20755 24.1787 3.99339 25.2246C3.81834 25.3083 3.62689 25.3522 3.43284 25.3531Z" fill="#C1C1C1"/>
<path d="M17.4999 15.2209H17.4014C10.3782 15.2031 5.28266 13.2856 2.87094 12.1447C2.56996 11.988 2.34142 11.7207 2.23335 11.399C2.12527 11.0773 2.14606 10.7263 2.29135 10.4196C2.43663 10.1129 2.69512 9.87447 3.0125 9.75435C3.32988 9.63422 3.68147 9.64176 3.99341 9.77539C6.20757 10.8233 10.8977 12.5829 17.4082 12.5993C24.0097 12.6171 28.7621 10.837 31.0063 9.77539C31.1628 9.6939 31.3341 9.64481 31.51 9.63106C31.6859 9.61732 31.8627 9.63919 32.03 9.69538C32.1972 9.75157 32.3514 9.84092 32.4833 9.95808C32.6153 10.0752 32.7222 10.2178 32.7977 10.3773C32.8733 10.5367 32.9158 10.7097 32.923 10.886C32.9301 11.0623 32.9015 11.2382 32.8391 11.4032C32.7766 11.5683 32.6815 11.719 32.5595 11.8464C32.4374 11.9738 32.2909 12.0753 32.1288 12.1447C29.6952 13.2959 24.5675 15.2209 17.4999 15.2209Z" fill="#C1C1C1"/>
<path d="M3.43193 18.8117C3.08402 18.8117 2.75035 18.6735 2.50434 18.4275C2.25833 18.1815 2.12012 17.8478 2.12012 17.4999C2.12012 17.152 2.25833 16.8183 2.50434 16.5723C2.75035 16.3263 3.08402 16.1881 3.43193 16.1881H31.5673C31.9152 16.1881 32.2489 16.3263 32.4949 16.5723C32.7409 16.8183 32.8791 17.152 32.8791 17.4999C32.8791 17.8478 32.7409 18.1815 32.4949 18.4275C32.2489 18.6735 31.9152 18.8117 31.5673 18.8117H3.43193Z" fill="#C1C1C1"/>
<path d="M16.8486 10.7727C16.9146 10.8872 17.0095 10.9822 17.1239 11.0483C17.2382 11.1144 17.368 11.1491 17.5001 11.1491C17.6321 11.1491 17.7619 11.1144 17.8763 11.0483C17.9906 10.9822 18.0856 10.8872 18.1515 10.7727L19.8605 7.81824C19.9265 7.70391 19.9613 7.57421 19.9613 7.4422C19.9612 7.31018 19.9265 7.18049 19.8604 7.06617C19.7944 6.95185 19.6995 6.85693 19.5851 6.79095C19.4708 6.72498 19.3411 6.69026 19.209 6.69031H18.8146V5.29509C18.8146 4.94718 18.6764 4.61351 18.4304 4.3675C18.1844 4.12149 17.8507 3.98328 17.5028 3.98328C17.1549 3.98328 16.8212 4.12149 16.5752 4.3675C16.3292 4.61351 16.191 4.94718 16.191 5.29509V6.69031H15.7911C15.6591 6.69038 15.5295 6.72518 15.4152 6.79121C15.301 6.85724 15.2061 6.95217 15.1402 7.06647C15.0742 7.18077 15.0395 7.31041 15.0396 7.44237C15.0396 7.57433 15.0743 7.70396 15.1403 7.81824L16.8486 10.7727Z" fill="#C1C1C1"/>
<path d="M17.4998 3.44663C17.8477 3.44663 18.1814 3.30842 18.4274 3.06241C18.6734 2.8164 18.8116 2.48273 18.8116 2.13481V2.06646C18.8116 1.71854 18.6734 1.38487 18.4274 1.13886C18.1814 0.892848 17.8477 0.754639 17.4998 0.754639C17.1519 0.754639 16.8182 0.892848 16.5722 1.13886C16.3262 1.38487 16.188 1.71854 16.188 2.06646V2.13481C16.188 2.48273 16.3262 2.8164 16.5722 3.06241C16.8182 3.30842 17.1519 3.44663 17.4998 3.44663Z" fill="#C1C1C1"/>
<path d="M18.1512 24.3585C18.0853 24.244 17.9903 24.149 17.876 24.0829C17.7616 24.0168 17.6318 23.9821 17.4998 23.9821C17.3677 23.9821 17.2379 24.0168 17.1236 24.0829C17.0092 24.149 16.9143 24.244 16.8483 24.3585L15.1427 27.313C15.0768 27.4272 15.042 27.5569 15.042 27.6888C15.042 27.8208 15.0767 27.9504 15.1426 28.0647C15.2086 28.179 15.3034 28.274 15.4177 28.34C15.5319 28.406 15.6616 28.4408 15.7935 28.4409H16.1879V29.8361C16.1879 30.184 16.3262 30.5177 16.5722 30.7637C16.8182 31.0097 17.1519 31.1479 17.4998 31.1479C17.8477 31.1479 18.1813 31.0097 18.4274 30.7637C18.6734 30.5177 18.8116 30.184 18.8116 29.8361V28.4409H19.2088C19.3407 28.4408 19.4703 28.406 19.5846 28.34C19.6988 28.274 19.7937 28.179 19.8596 28.0647C19.9256 27.9504 19.9603 27.8208 19.9603 27.6888C19.9603 27.5569 19.9255 27.4272 19.8595 27.313L18.1512 24.3585Z" fill="#C1C1C1"/>
<path d="M17.4998 31.5532C17.1519 31.5532 16.8182 31.6914 16.5722 31.9374C16.3262 32.1835 16.188 32.5171 16.188 32.865V32.9334C16.188 33.2813 16.3262 33.615 16.5722 33.861C16.8182 34.107 17.1519 34.2452 17.4998 34.2452C17.8477 34.2452 18.1814 34.107 18.4274 33.861C18.6734 33.615 18.8116 33.2813 18.8116 32.9334V32.865C18.8116 32.5171 18.6734 32.1835 18.4274 31.9374C18.1814 31.6914 17.8477 31.5532 17.4998 31.5532Z" fill="#C1C1C1"/>
</svg>
