<svg width="35" height="35" viewBox="0 0 35 35" fill="none" xmlns="http://www.w3.org/2000/svg">
<g clip-path="url(#clip0_109_1381)">
<path d="M34.9474 29.5317C34.9266 29.4692 32.8294 23.2132 29.7434 17.0414C27.9147 13.3838 26.0957 10.4592 24.337 8.34887C21.9979 5.54189 19.6976 4.11865 17.5 4.11865C15.3024 4.11865 13.0021 5.54189 10.6629 8.34887C8.90426 10.4593 7.08529 13.3838 5.25654 17.0414C2.17066 23.2132 0.0733903 29.4692 0.0526091 29.5317C-0.0515706 29.8444 0.000792677 30.1881 0.193566 30.4555C0.38634 30.723 0.695802 30.8813 1.02536 30.8813H33.9746C34.3041 30.8813 34.6137 30.7229 34.8064 30.4555C34.9992 30.1882 35.0516 29.8444 34.9474 29.5317ZM9.26267 26.7627C8.68783 26.7627 8.26216 26.2929 8.23728 25.7373C8.21246 25.1835 8.72632 24.7119 9.26267 24.7119C9.8375 24.7119 10.2632 25.1817 10.2881 25.7373C10.3129 26.2911 9.79902 26.7627 9.26267 26.7627ZM11.322 20.9692C10.7472 20.9692 10.3215 20.4994 10.2966 19.9438C10.2718 19.3901 10.7856 18.9185 11.322 18.9185C11.8968 18.9185 12.3225 19.3883 12.3474 19.9438C12.3722 20.4976 11.8583 20.9692 11.322 20.9692ZM13.3813 14.4067C12.8065 14.4067 12.3808 13.9369 12.3559 13.3813C12.3311 12.8276 12.845 12.356 13.3813 12.356C13.9562 12.356 14.3818 12.8258 14.4067 13.3813C14.4315 13.9351 13.9177 14.4067 13.3813 14.4067ZM15.4406 24.7034C14.8658 24.7034 14.4401 24.2335 14.4153 23.678C14.3904 23.1242 14.9043 22.6526 15.4406 22.6526C16.0155 22.6526 16.4412 23.1224 16.466 23.678C16.4909 24.2318 15.977 24.7034 15.4406 24.7034ZM17.5 16.4661C16.9251 16.4661 16.4995 15.9962 16.4746 15.4407C16.4498 14.8869 16.9636 14.4153 17.5 14.4153C18.0748 14.4153 18.5005 14.8851 18.5254 15.4407C18.5502 15.9945 18.0363 16.4661 17.5 16.4661ZM19.5593 20.5847C18.9845 20.5847 18.5588 20.1149 18.5339 19.5593C18.5091 19.0055 19.023 18.5339 19.5593 18.5339C20.1341 18.5339 20.5598 19.0038 20.5847 19.5593C20.6095 20.1131 20.0956 20.5847 19.5593 20.5847ZM19.5593 12.3474C18.9845 12.3474 18.5588 11.8776 18.5339 11.322C18.5091 10.7682 19.023 10.2966 19.5593 10.2966C20.1341 10.2966 20.5598 10.7665 20.5847 11.322C20.6095 11.8758 20.0956 12.3474 19.5593 12.3474ZM21.6186 27.0276C21.0438 27.0276 20.6181 26.5578 20.5932 26.0022C20.5684 25.4484 21.0823 24.9768 21.6186 24.9768C22.1935 24.9768 22.6191 25.4466 22.644 26.0022C22.6688 26.556 22.155 27.0276 21.6186 27.0276ZM23.678 22.644C23.1031 22.644 22.6774 22.1742 22.6526 21.6187C22.6277 21.0649 23.1416 20.5933 23.678 20.5933C24.2528 20.5933 24.6785 21.0631 24.7033 21.6187C24.7282 22.1724 24.2143 22.644 23.678 22.644ZM23.678 16.7993C23.1031 16.7993 22.6774 16.3295 22.6526 15.7739C22.6277 15.2201 23.1416 14.7485 23.678 14.7485C24.2528 14.7485 24.6785 15.2184 24.7033 15.7739C24.7282 16.3277 24.2143 16.7993 23.678 16.7993ZM27.7966 26.7627C27.2218 26.7627 26.7961 26.2929 26.7712 25.7373C26.7464 25.1835 27.2603 24.7119 27.7966 24.7119C28.3714 24.7119 28.7971 25.1817 28.822 25.7373C28.8468 26.2911 28.333 26.7627 27.7966 26.7627Z" fill="#C1C1C1"/>
</g>
<defs>
<clipPath id="clip0_109_1381">
<rect width="35" height="35" fill="white"/>
</clipPath>
</defs>
</svg>
