<svg width="35" height="35" viewBox="0 0 35 35" fill="none" xmlns="http://www.w3.org/2000/svg">
<path d="M30.5857 22.9688H4.41446C4.01086 17.372 6.73539 12.1275 11.1213 9.47297L12.0456 17.7428C12.1123 18.3433 12.6537 18.7808 13.2531 18.7086C13.8546 18.6408 14.2866 18.1005 14.2188 17.5L13.1316 7.77437C13.0999 7.46812 13.1995 7.16078 13.404 6.93438C13.6184 6.69813 13.9246 6.5625 14.2484 6.5625H20.7518C21.0745 6.5625 21.3818 6.69813 21.5951 6.93438C21.8007 7.16188 21.9002 7.46375 21.8696 7.75578L20.7813 17.5C20.7135 18.1005 21.1455 18.6408 21.7471 18.7075C22.3421 18.7775 22.8879 18.3455 22.9546 17.7417L23.8788 9.47187C28.2648 12.1275 30.9893 17.372 30.5857 22.9688Z" fill="#C1C1C1"/>
<path d="M32.8125 26.7969C32.8125 27.7014 32.0764 28.4375 31.1719 28.4375H3.82812C2.92359 28.4375 2.1875 27.7014 2.1875 26.7969C2.1875 25.8923 2.92359 25.1562 3.82812 25.1562H31.1719C32.0764 25.1562 32.8125 25.8923 32.8125 26.7969Z" fill="#C1C1C1"/>
</svg>
