<svg width="35" height="35" viewBox="0 0 35 35" fill="none" xmlns="http://www.w3.org/2000/svg">
<path d="M34.9672 11.7666L32.9875 3.84344C32.7447 2.87 31.8697 2.1875 30.8656 2.1875H4.13656C3.1325 2.1875 2.2575 2.87 2.0125 3.84344L0.0328125 11.7666C0.0109375 11.8519 0 11.9416 0 12.0312C0 15.0456 2.32969 17.5 5.19531 17.5C6.86 17.5 8.34531 16.6709 9.29688 15.3847C10.2484 16.6709 11.7338 17.5 13.3984 17.5C15.0631 17.5 16.5484 16.6709 17.5 15.3847C18.4516 16.6709 19.9347 17.5 21.6016 17.5C23.2684 17.5 24.7516 16.6709 25.7031 15.3847C26.6547 16.6709 28.1378 17.5 29.8047 17.5C32.6703 17.5 35 15.0456 35 12.0312C35 11.9416 34.9891 11.8519 34.9672 11.7666Z" fill="#C1C1C1"/>
<path d="M29.8047 19.6875C28.315 19.6875 26.8997 19.2325 25.7031 18.4012C23.31 20.0659 19.8931 20.0659 17.5 18.4012C15.1069 20.0659 11.69 20.0659 9.29688 18.4012C8.10031 19.2325 6.685 19.6875 5.19531 19.6875C4.12125 19.6875 3.10844 19.4359 2.1875 19.0072V30.625C2.1875 31.8325 3.1675 32.8125 4.375 32.8125H13.125V24.0625H21.875V32.8125H30.625C31.8325 32.8125 32.8125 31.8325 32.8125 30.625V19.0072C31.8916 19.4359 30.8787 19.6875 29.8047 19.6875Z" fill="#C1C1C1"/>
</svg>
