<svg width="35" height="35" viewBox="0 0 35 35" fill="none" xmlns="http://www.w3.org/2000/svg">
<path d="M29.1045 13.0304H27.9851L28.3794 12.6361C28.479 12.533 28.5341 12.3948 28.5328 12.2514C28.5316 12.108 28.4741 11.9709 28.3727 11.8695C28.2713 11.7681 28.1341 11.7106 27.9907 11.7093C27.8474 11.7081 27.7092 11.7632 27.6061 11.8628L26.4385 13.0304H25.2304C25.1933 12.9066 25.1437 12.787 25.0822 12.6733L26.275 11.4811C26.3746 11.378 26.4297 11.2398 26.4285 11.0964C26.4272 10.953 26.3697 10.8159 26.2683 10.7145C26.1669 10.6131 26.0298 10.5556 25.8864 10.5543C25.743 10.5531 25.6048 10.6082 25.5017 10.7078L24.309 11.9C24.1954 11.839 24.0759 11.7895 23.9524 11.7524V10.5438L25.0801 9.41611C25.1829 9.31357 25.2408 9.17437 25.241 9.02915C25.2412 8.88392 25.1837 8.74457 25.0812 8.64173C24.9786 8.5389 24.8394 8.48101 24.6942 8.48081C24.549 8.4806 24.4096 8.5381 24.3068 8.64064L23.9524 8.99501V7.8783C23.9524 7.73326 23.8948 7.59416 23.7922 7.4916C23.6897 7.38904 23.5506 7.33142 23.4055 7.33142C23.2605 7.33142 23.1214 7.38904 23.0188 7.4916C22.9163 7.59416 22.8587 7.73326 22.8587 7.8783V8.9972L22.4644 8.60291C22.3617 8.50036 22.2226 8.44278 22.0775 8.44283C21.9325 8.44288 21.7933 8.50056 21.6908 8.60318C21.5883 8.70579 21.5307 8.84494 21.5307 8.99001C21.5308 9.13508 21.5885 9.27419 21.6911 9.37673L22.8592 10.5438V11.7524C22.7357 11.7894 22.6162 11.8389 22.5026 11.9L21.3099 10.7078C21.2068 10.6082 21.0686 10.5531 20.9252 10.5543C20.7818 10.5556 20.6447 10.6131 20.5433 10.7145C20.4419 10.8159 20.3844 10.953 20.3831 11.0964C20.3819 11.2398 20.437 11.378 20.5366 11.4811L21.7294 12.6733C21.6679 12.787 21.6183 12.9066 21.5812 13.0304H20.3726L19.2444 11.9022C19.1412 11.8026 19.0031 11.7475 18.8597 11.7487C18.7163 11.75 18.5791 11.8075 18.4777 11.9089C18.3763 12.0103 18.3188 12.1474 18.3176 12.2908C18.3163 12.4342 18.3715 12.5723 18.4711 12.6755L18.8254 13.0304H17.7065C17.5615 13.0304 17.4224 13.088 17.3198 13.1906C17.2173 13.2931 17.1597 13.4322 17.1597 13.5773C17.1597 13.7223 17.2173 13.8614 17.3198 13.964C17.4224 14.0665 17.5615 14.1242 17.7065 14.1242H18.8254L18.4317 14.5179C18.3321 14.621 18.277 14.7592 18.2782 14.9026C18.2795 15.046 18.337 15.1831 18.4384 15.2845C18.5398 15.3859 18.6769 15.4434 18.8203 15.4447C18.9637 15.4459 19.1018 15.3908 19.205 15.2912L20.372 14.1242H21.5806C21.6178 14.2477 21.6675 14.3672 21.7288 14.4807L20.5361 15.6735C20.4365 15.7766 20.3813 15.9147 20.3826 16.0581C20.3838 16.2015 20.4413 16.3387 20.5427 16.4401C20.6441 16.5415 20.7813 16.599 20.9247 16.6002C21.0681 16.6015 21.2062 16.5464 21.3094 16.4467L22.5021 15.254C22.6154 15.3156 22.735 15.3651 22.8587 15.4017V16.6102L21.7304 17.7385C21.6308 17.8416 21.5757 17.9797 21.577 18.1231C21.5782 18.2665 21.6357 18.4037 21.7371 18.5051C21.8385 18.6065 21.9757 18.664 22.1191 18.6652C22.2624 18.6665 22.4006 18.6114 22.5037 18.5117L22.8592 18.1563V19.2757C22.8592 19.4208 22.9168 19.5599 23.0194 19.6624C23.1219 19.765 23.261 19.8226 23.4061 19.8226C23.5511 19.8226 23.6902 19.765 23.7928 19.6624C23.8953 19.5599 23.9529 19.4208 23.9529 19.2757V18.1563L24.3472 18.5506C24.3977 18.6028 24.458 18.6445 24.5248 18.6731C24.5915 18.7018 24.6632 18.7169 24.7359 18.7175C24.8085 18.7181 24.8805 18.7043 24.9477 18.6768C25.0149 18.6493 25.076 18.6087 25.1273 18.5573C25.1787 18.506 25.2193 18.4449 25.2468 18.3777C25.2743 18.3105 25.2881 18.2385 25.2875 18.1659C25.2868 18.0933 25.2717 18.0215 25.2431 17.9548C25.2144 17.8881 25.1728 17.8277 25.1205 17.7773L23.9529 16.6102V15.4017C24.0766 15.365 24.1961 15.3155 24.3095 15.254L25.5022 16.4467C25.6054 16.5464 25.7435 16.6015 25.8869 16.6002C26.0303 16.599 26.1675 16.5415 26.2689 16.4401C26.3703 16.3387 26.4278 16.2015 26.429 16.0581C26.4303 15.9147 26.3751 15.7766 26.2755 15.6735L25.0828 14.4807C25.1441 14.3672 25.1938 14.2477 25.231 14.1242H26.439L27.5672 15.2518C27.6177 15.304 27.678 15.3457 27.7448 15.3744C27.8115 15.403 27.8832 15.4181 27.9559 15.4187C28.0285 15.4194 28.1005 15.4055 28.1677 15.378C28.2349 15.3505 28.296 15.3099 28.3473 15.2586C28.3987 15.2072 28.4393 15.1462 28.4668 15.079C28.4943 15.0118 28.5081 14.9398 28.5075 14.8671C28.5068 14.7945 28.4917 14.7228 28.4631 14.656C28.4344 14.5893 28.3928 14.529 28.3405 14.4785L27.9856 14.1242H29.1045C29.2496 14.1242 29.3887 14.0665 29.4912 13.964C29.5938 13.8614 29.6514 13.7223 29.6514 13.5773C29.6514 13.4322 29.5938 13.2931 29.4912 13.1906C29.3887 13.088 29.2496 13.0304 29.1045 13.0304Z" fill="#C1C1C1"/>
<path d="M13.1188 24.4278L12.2252 23.7716C12.1559 23.7208 12.0996 23.6545 12.0607 23.5779C12.0219 23.5013 12.0016 23.4167 12.0015 23.3308V6.01562C12.0015 5.87058 11.9439 5.73149 11.8414 5.62893C11.7388 5.52637 11.5997 5.46875 11.4547 5.46875C11.3096 5.46875 11.1705 5.52637 11.068 5.62893C10.9654 5.73149 10.9078 5.87058 10.9078 6.01562V23.3313C10.9077 23.4172 10.8875 23.5019 10.8486 23.5784C10.8097 23.655 10.7534 23.7214 10.6841 23.7721L9.79053 24.4284C9.30837 24.7796 8.94971 25.2744 8.76591 25.8419C8.58211 26.4095 8.5826 27.0206 8.7673 27.5878C8.952 28.155 9.31145 28.6493 9.79417 28.9997C10.2769 29.3502 10.8581 29.539 11.4547 29.539C12.0512 29.539 12.6324 29.3502 13.1152 28.9997C13.5979 28.6493 13.9573 28.155 14.142 27.5878C14.3267 27.0206 14.3272 26.4095 14.1434 25.8419C13.9596 25.2744 13.601 24.7791 13.1188 24.4278Z" fill="#C1C1C1"/>
<path d="M15.2829 21.9543V6.01562C15.2829 5.00034 14.8795 4.02664 14.1616 3.30873C13.4437 2.59082 12.47 2.1875 11.4547 2.1875C10.4394 2.1875 9.46575 2.59082 8.74783 3.30873C8.02992 4.02664 7.6266 5.00034 7.6266 6.01562V21.9538C6.6414 22.7461 5.92637 23.8247 5.58016 25.0407C5.23394 26.2567 5.27359 27.5502 5.69365 28.7427C6.11371 29.9352 6.89347 30.9679 7.92535 31.6985C8.95724 32.429 10.1904 32.8214 11.4547 32.8214C12.719 32.8214 13.9522 32.429 14.9841 31.6985C16.016 30.9679 16.7957 29.9352 17.2158 28.7427C17.6359 27.5502 17.6755 26.2567 17.3293 25.0407C16.9831 23.8247 16.268 22.7467 15.2829 21.9543ZM14.2268 29.4766C13.845 29.8575 13.3886 30.1555 12.8863 30.3519C12.3839 30.5483 11.8464 30.6389 11.3075 30.6179C10.7685 30.5969 10.2397 30.4649 9.7541 30.2301C9.26853 29.9953 8.83667 29.6627 8.48558 29.2533C8.13448 28.8438 7.87172 28.3663 7.71374 27.8505C7.55576 27.3348 7.50597 26.792 7.56749 26.2562C7.62901 25.7203 7.80051 25.203 8.07125 24.7365C8.342 24.27 8.70615 23.8644 9.1409 23.5452L9.81137 23.053V6.01562C9.81137 5.5805 9.98422 5.1632 10.2919 4.85553C10.5996 4.54785 11.0169 4.375 11.452 4.375C11.8871 4.375 12.3044 4.54785 12.6121 4.85553C12.9198 5.1632 13.0926 5.5805 13.0926 6.01562V23.0541L13.7625 23.5462C14.2197 23.8789 14.5993 24.3066 14.8753 24.8C15.1512 25.2934 15.317 25.8408 15.3611 26.4044C15.4052 26.968 15.3267 27.5345 15.1309 28.0649C14.9351 28.5952 14.6266 29.0769 14.2268 29.4766Z" fill="#C1C1C1"/>
</svg>
