<svg width="35" height="35" viewBox="0 0 35 35" fill="none" xmlns="http://www.w3.org/2000/svg">
<g clip-path="url(#clip0_119_1462)">
<path d="M5.84068 33.04L5.45179 33.4288C4.93846 33.9422 4.24623 34.23 3.51512 34.23C2.78401 34.23 2.09179 33.95 1.57845 33.4288C1.06512 32.9155 0.777344 32.2233 0.777344 31.4922C0.777344 30.7611 1.05734 30.0688 1.57845 29.5555L1.96734 29.1666L5.84068 33.04Z" fill="#C1C1C1"/>
<path d="M2.51758 28.6011L6.66374 24.4549L10.535 28.3261L6.3888 32.4723L2.51758 28.6011Z" fill="#C1C1C1"/>
<path d="M7.22949 23.8907L9.55002 21.5702L13.4212 25.4414L11.1007 27.762L7.22949 23.8907Z" fill="#C1C1C1"/>
<path d="M12.8949 23.7689L11.2305 22.1045L18.5338 14.8012C18.7127 14.6223 18.946 14.5289 19.1949 14.5289C19.4438 14.5289 19.6849 14.63 19.856 14.8012L20.1905 15.1356C20.556 15.5012 20.556 16.1 20.1905 16.4656L12.8949 23.7689Z" fill="#C1C1C1"/>
<path d="M33.6226 1.37666C34.1748 1.92889 34.3615 2.67555 34.1203 3.42222L27.937 22.9211C27.7115 23.6211 27.1981 24.1033 26.4903 24.2744C25.7748 24.4456 25.0981 24.2589 24.577 23.7378L19.3192 18.48L20.7659 17.0333C21.4426 16.3567 21.4426 15.2522 20.7659 14.5756L20.4315 14.2411C20.1048 13.9144 19.6692 13.7356 19.2026 13.7356C18.7359 13.7356 18.3003 13.9144 17.9737 14.2411L16.527 15.6878L11.2615 10.4222C10.7403 9.90111 10.5537 9.22444 10.7248 8.50889C10.8959 7.79333 11.3781 7.28 12.0781 7.06222L31.577 0.878887C32.3237 0.645554 33.0703 0.824443 33.6226 1.37666ZM29.2048 9.19333C29.2748 8.98333 29.1659 8.75778 28.9637 8.68778C28.7537 8.61778 28.5281 8.72667 28.4581 8.92889L27.9292 10.43C27.8592 10.64 27.9681 10.8656 28.1703 10.9356C28.217 10.9511 28.2559 10.9589 28.3026 10.9589C28.4659 10.9589 28.6215 10.8578 28.6759 10.6944L29.2048 9.19333ZM27.7892 13.2144C27.8592 13.0044 27.7503 12.7789 27.5481 12.7089C27.3381 12.6389 27.1126 12.7478 27.0426 12.95L25.627 16.9711C25.557 17.1811 25.6659 17.4067 25.8681 17.4767C25.9148 17.4922 25.9537 17.5 26.0003 17.5C26.1637 17.5 26.3192 17.3989 26.3737 17.2356L27.7892 13.2144Z" fill="#C1C1C1"/>
</g>
<defs>
<clipPath id="clip0_119_1462">
<rect width="35" height="35" fill="white"/>
</clipPath>
</defs>
</svg>
