<svg width="35" height="35" viewBox="0 0 35 35" fill="none" xmlns="http://www.w3.org/2000/svg">
<path d="M33.5291 32.9398L29.8132 12.2084C29.6637 11.3738 28.9375 10.7662 28.0895 10.7662H21.9096C23.0683 9.62492 23.7884 8.0394 23.7884 6.28835C23.7884 2.82091 20.9675 0 17.5 0C14.0326 0 11.2116 2.82091 11.2116 6.28835C11.2116 8.0394 11.9316 9.62492 13.0903 10.7662H6.91043C6.0624 10.7662 5.33636 11.3738 5.1867 12.2084L1.47082 32.9398C1.37941 33.4502 1.51869 33.9749 1.85153 34.3725C2.18425 34.7701 2.6761 34.9999 3.19456 34.9999H31.8054C32.3238 34.9999 32.8157 34.7701 33.1484 34.3725C33.4811 33.9749 33.6205 33.4502 33.5291 32.9398ZM17.5 3.50235C19.0363 3.50235 20.286 4.7521 20.286 6.28835C20.286 7.82459 19.0363 9.07446 17.5 9.07446C15.9638 9.07446 14.7139 7.82459 14.7139 6.28835C14.7139 4.7521 15.9638 3.50235 17.5 3.50235ZM17.0424 27.0995C16.9512 27.2676 16.7751 27.3724 16.5839 27.3724H15.7578C15.5727 27.3724 15.4013 27.2742 15.3077 27.1144L13.2632 23.6243L11.9558 24.9589V26.5661C11.9558 27.0114 11.5948 27.3724 11.1496 27.3724C10.7043 27.3724 10.3433 27.0114 10.3433 26.5661V20.1922C10.3433 19.7469 10.7043 19.386 11.1496 19.386C11.5948 19.386 11.9558 19.7469 11.9558 20.1922V22.9323L15.0588 19.5547C15.1575 19.4471 15.2969 19.386 15.4429 19.386H16.1518C16.3613 19.386 16.5503 19.5111 16.6321 19.7039C16.7139 19.8966 16.6724 20.1196 16.5269 20.2701L14.3746 22.4964L17.0212 26.5662C17.1255 26.7268 17.1337 26.9313 17.0424 27.0995ZM24.986 26.036C24.986 26.1945 24.9137 26.3451 24.7898 26.444C24.4681 26.7007 24.0441 26.9312 23.5181 27.1353C22.8769 27.384 22.2277 27.5084 21.5704 27.5084C20.735 27.5084 20.0071 27.3333 19.3858 26.9827C18.7649 26.6323 18.2981 26.1311 17.9858 25.4791C17.6734 24.8272 17.5173 24.1182 17.5173 23.3518C17.5173 22.5202 17.6916 21.781 18.0403 21.1347C18.3889 20.4881 18.8992 19.9926 19.5712 19.6474C20.083 19.3823 20.7205 19.2496 21.4832 19.2496C22.4747 19.2496 23.2491 19.4576 23.8067 19.8735C24.0482 20.0536 24.2524 20.2636 24.4193 20.5034C24.5787 20.7326 24.6111 21.0269 24.5053 21.2852C24.3995 21.5435 24.1701 21.7309 23.8956 21.7823L23.8938 21.7826C23.5723 21.8427 23.2463 21.7003 23.0722 21.4234C22.9609 21.2462 22.8188 21.0945 22.6464 20.9683C22.3357 20.7414 21.948 20.6279 21.4832 20.6279C20.7786 20.6279 20.2183 20.8513 19.8027 21.2979C19.3868 21.7448 19.1789 22.4076 19.1789 23.2864C19.1789 24.2344 19.3894 24.9452 19.8109 25.4192C20.2321 25.8931 20.784 26.1301 21.467 26.1301C21.8046 26.1301 22.1433 26.0639 22.4829 25.9313C22.8223 25.7986 23.1138 25.6379 23.3572 25.4492V24.4358H22.1834C21.8118 24.4358 21.5107 24.1346 21.5107 23.7631C21.5107 23.3915 21.8119 23.0904 22.1834 23.0904H24.4644C24.7526 23.0904 24.986 23.324 24.986 23.612V26.036Z" fill="#C1C1C1"/>
</svg>
