<svg width="18" height="19" viewBox="0 0 18 19" fill="none" xmlns="http://www.w3.org/2000/svg">
<path d="M16.95 18.5C17.1167 18.5 17.2917 18.496 17.475 18.488C17.6583 18.4793 17.8333 18.4667 18 18.45V12.6L13 11.6L10.1 14.5C8.83333 13.7333 7.67067 12.825 6.612 11.775C5.554 10.725 4.675 9.6 3.975 8.4L6.825 5.525L5.9 0.5H0.0499992C0.0166664 0.666667 0 0.841667 0 1.025V1.55C0 3.7 0.479334 5.79567 1.438 7.837C2.396 9.879 3.66267 11.6917 5.238 13.275C6.81267 14.8583 8.62067 16.125 10.662 17.075C12.704 18.025 14.8 18.5 16.95 18.5Z" fill="white"/>
</svg>
