<svg width="48" height="48" viewBox="0 0 48 48" fill="none" xmlns="http://www.w3.org/2000/svg"><g clip-path="url(#clip0_1_413)"><path d="M24 .96C11.275.96.96 11.275.96 24S11.275 47.04 24 47.04 47.04 36.725 47.04 24 36.725.96 24 .96zm-5.64 32.59h-4.666V18.535h4.666V33.55zm-2.362-16.858c-1.473 0-2.426-1.044-2.426-2.335 0-1.318.982-2.33 2.486-2.33 1.505 0 2.427 1.012 2.456 2.33 0 1.291-.95 2.335-2.516 2.335zM35.4 33.55h-4.666v-8.321c0-1.937-.676-3.252-2.364-3.252-1.288 0-2.054.89-2.392 1.747-.125.305-.156.737-.156 1.166v8.657h-4.668V23.323c0-1.874-.06-3.441-.123-4.79h4.054l.213 2.085h.094c.614-.979 2.12-2.424 4.637-2.424 3.07 0 5.371 2.057 5.371 6.478v8.878z" fill="#fff"/></g><defs><clipPath id="clip0_1_413"><path fill="#fff" d="M0 0h48v48H0z"/></clipPath></defs></svg>