<svg width="15" height="15" viewBox="0 0 15 15" fill="none" xmlns="http://www.w3.org/2000/svg"><path d="M12.814 14.406h-.09C2.283 13.806.801 4.998.593 2.31A1.594 1.594 0 012.062.594h2.927a1.062 1.062 0 01.988.67l.808 1.986a1.062 1.062 0 01-.234 1.147L5.42 5.54a4.978 4.978 0 004.027 4.037l1.152-1.142a1.063 1.063 0 011.153-.218l2.003.802a1.063 1.063 0 01.653.989v2.805a1.594 1.594 0 01-1.593 1.593zM2.189 1.656a.531.531 0 00-.532.532v.042c.245 3.145 1.812 10.582 11.125 11.114a.53.53 0 00.563-.5v-2.836l-2.003-.803-1.525 1.514-.255-.031c-4.621-.58-5.248-5.201-5.248-5.25l-.032-.254L5.79 3.659l-.797-2.003H2.189z" fill="#E11E1E"/></svg>