<svg width="17" height="17" viewBox="0 0 17 17" fill="none" xmlns="http://www.w3.org/2000/svg"><path d="M15.643 1.84a.465.465 0 00-.474-.082L1.712 7.025a.812.812 0 00.139 1.553l3.594.706v3.997a.93.93 0 001.599.645l1.769-1.835 2.761 2.42a.923.923 0 00.9.187.92.92 0 00.62-.676l2.698-11.726a.464.464 0 00-.15-.457zM1.995 7.793a.03.03 0 010-.021.034.034 0 01.01-.005l10.606-4.152L5.75 8.53l-3.746-.733-.01-.003zm4.475 5.578a.133.133 0 01-.228-.09V9.834l1.971 1.727-1.743 1.81zm5.849.47a.128.128 0 01-.09.096.132.132 0 01-.132-.027L6.483 8.987l8.325-5.966-2.49 10.821z" fill="#E11E1E"/></svg>