<svg width="17" height="17" viewBox="0 0 17 17" fill="none" xmlns="http://www.w3.org/2000/svg"><g clip-path="url(#clip0_606_7108)" fill="#E11E1E"><path d="M10.336 6.96h-.733c0-.81-.288-1.099-1.1-1.099v-.733c1.215 0 1.833.619 1.833 1.832z"/><path d="M11.802 6.96h-.733c0-1.63-.935-2.565-2.565-2.565v-.732c2.034 0 3.298 1.264 3.298 3.297z"/><path d="M13.267 6.96h-.732c0-2.409-1.622-4.03-4.031-4.03v-.733c2.849 0 4.763 1.914 4.763 4.763z"/><path d="M4.84 17v-2.528l-.784-.092a4.001 4.001 0 01-3.485-3.66 46.429 46.429 0 01-.129-3.393c0-1.132.046-2.272.129-3.394C.717 2.04 2.21.498 4.12.264a36.433 36.433 0 018.756 0c1.915.234 3.408 1.777 3.555 3.669a43.98 43.98 0 01.128 3.394c0 1.131-.046 2.276-.128 3.394a4 4 0 01-3.477 3.66 36.207 36.207 0 01-3.943.27L4.839 17zM8.502.731c-1.432 0-2.866.089-4.29.261-1.567.193-2.79 1.452-2.909 3a42.41 42.41 0 00-.128 3.335c0 1.113.041 2.24.128 3.339a3.27 3.27 0 002.845 2.99c.363.046.728.086 1.094.12l.335.032v1.942l3.243-1.828h.091a35.518 35.518 0 003.957-.266c1.525-.187 2.716-1.447 2.835-2.986.087-1.099.129-2.226.129-3.339a42.65 42.65 0 00-.129-3.339c-.119-1.548-1.341-2.807-2.913-3a35.628 35.628 0 00-4.287-.26z"/><path d="M9.942 12.09h-.339a6.235 6.235 0 01-6.229-6.229v-.339a2.184 2.184 0 01.646-1.557l.302-.302c.472-.472 1.296-.472 1.768 0l.948.948c.236.233.367.552.367.884a1.26 1.26 0 01-.367.884l-.087.087a.957.957 0 00-.28.677.975.975 0 00.28.678l.687.687c.357.358 1.003.358 1.36 0l.087-.087c.472-.471 1.297-.471 1.768 0l.949.953a1.25 1.25 0 010 1.768l-.303.302a2.185 2.185 0 01-1.557.646zM5.206 4.029a.517.517 0 00-.366.151l-.303.302c-.277.275-.432.65-.43 1.04v.339a5.5 5.5 0 005.496 5.496h.339c.389 0 .761-.154 1.035-.43l.302-.303a.518.518 0 000-.732l-.943-.948a.531.531 0 00-.733 0l-.087.086a1.695 1.695 0 01-2.395 0l-.687-.687a1.703 1.703 0 01-.495-1.2c0-.448.177-.878.495-1.195l.087-.087a.523.523 0 000-.733l-.948-.948a.517.517 0 00-.367-.151z"/></g><defs><clipPath id="clip0_606_7108"><path fill="#fff" d="M0 0h17v17H0z"/></clipPath></defs></svg>