<svg width="48" height="48" viewBox="0 0 48 48" fill="none" xmlns="http://www.w3.org/2000/svg"><g clip-path="url(#clip0_1_417)"><path d="M27.847 23.6l-5.39-2.516c-.47-.218-.857.026-.857.547v4.738c0 .52.386.765.857.547l5.388-2.515c.473-.221.473-.581.002-.802zM24 .96C11.275.96.96 11.275.96 24S11.275 47.04 24 47.04 47.04 36.725 47.04 24 36.725.96 24 .96zm0 32.4c-11.794 0-12-1.063-12-9.36 0-8.297.206-9.36 12-9.36S36 15.703 36 24c0 8.297-.206 9.36-12 9.36z" fill="#fff"/></g><defs><clipPath id="clip0_1_417"><path fill="#fff" d="M0 0h48v48H0z"/></clipPath></defs></svg>